<svg version="1.1" id="Layer_1" xmlns="http://www.w3.org/2000/svg" xmlns:xlink="http://www.w3.org/1999/xlink" x="0px" y="0px"
	 width="100%" viewBox="0 0 225 225" enable-background="new 0 0 225 225" xml:space="preserve">
<path fill="#FEFEFE" opacity="1.000000" stroke="none" 
	d="
M135.000000,226.000000 
	C90.000000,226.000000 45.500004,226.000000 1.000006,226.000000 
	C1.000004,151.000000 1.000004,76.000015 1.000002,1.000016 
	C75.999992,1.000011 150.999985,1.000011 225.999969,1.000005 
	C225.999985,75.999985 225.999985,150.999969 226.000000,225.999969 
	C195.833328,226.000000 165.666672,226.000000 135.000000,226.000000 
M179.953400,138.332382 
	C179.351257,137.882629 178.749130,137.432861 177.972565,136.087463 
	C177.652603,126.392044 177.332657,116.696625 177.164886,106.349655 
	C177.121597,105.907028 177.078323,105.464401 177.580139,104.460304 
	C177.837173,102.333412 178.094208,100.206520 179.128906,98.067215 
	C180.270828,97.837097 181.411621,97.601189 182.554855,97.377777 
	C192.749039,95.385582 194.923721,92.207573 192.094162,82.134865 
	C190.484985,76.406494 188.636459,70.594193 185.813080,65.409210 
	C183.804703,61.720936 179.990112,59.016205 176.347885,55.457031 
	C172.866089,54.978848 169.384293,54.500664 165.148178,53.970184 
	C164.100571,52.665859 162.735977,51.495956 162.107468,50.013901 
	C161.620575,48.865791 162.054184,47.327324 162.026642,45.167736 
	C162.012802,44.112091 161.998962,43.056446 162.316833,41.368626 
	C163.178436,39.140335 164.040024,36.912045 165.200378,33.970490 
	C165.511108,31.203482 166.139435,28.419306 165.991196,25.677105 
	C165.922714,24.409958 163.807877,22.046629 163.519302,22.176519 
	C157.847351,24.729454 153.053528,21.398802 147.335556,19.927164 
	C145.226746,20.609219 143.117950,21.291271 141.009140,21.973320 
	C142.080719,23.956421 143.138535,25.947235 144.240677,27.913208 
	C144.384125,28.169085 144.755768,28.297031 144.466278,28.905005 
	C144.355637,29.571165 144.244995,30.237326 143.978394,31.524799 
	C143.338776,32.324993 142.699158,33.125191 141.606735,34.171661 
	C142.025665,34.787861 142.444595,35.404060 143.233154,36.697449 
	C144.851639,41.967461 145.099548,47.969791 151.071167,51.732437 
	C151.065598,52.473339 151.060028,53.214237 150.730728,54.410866 
	C150.456604,54.660606 150.182480,54.910351 149.285522,55.268890 
	C148.162292,55.794445 147.039078,56.320000 145.266342,56.914341 
	C144.147018,57.521511 143.027710,58.128685 141.347168,58.929565 
	C140.899170,59.296844 140.451172,59.664127 139.353241,60.214550 
	C137.114685,62.717140 134.876129,65.219734 131.710068,68.759232 
	C135.831711,68.759232 138.395813,68.759232 141.871155,68.876663 
	C143.852432,68.888863 145.837753,68.987686 147.814163,68.895523 
	C152.142365,68.693672 154.149719,70.268852 153.858871,75.006302 
	C153.718872,77.286743 155.220627,79.667961 155.978210,82.647598 
	C156.061035,83.068604 156.143860,83.489601 155.913651,84.554153 
	C155.624771,85.688583 155.335892,86.823021 155.011627,87.989624 
	C155.011627,87.989624 154.979675,88.024956 154.371002,87.843208 
	C152.327042,88.087074 150.283081,88.330940 148.036789,88.598946 
	C149.066711,91.258514 150.101624,93.930984 150.223877,96.704269 
	C147.468582,96.783379 144.713272,96.862480 141.091995,96.798897 
	C138.142456,96.335175 136.709854,97.393105 136.974442,100.571800 
	C137.180511,103.047447 137.085434,105.548164 137.008514,108.911674 
	C136.455963,115.189430 136.468445,121.579071 135.251404,127.725250 
	C130.411850,152.165695 133.050476,176.650986 133.814224,201.703629 
	C132.398895,202.448196 130.983582,203.192764 128.911591,203.999359 
	C126.237442,205.134216 123.563301,206.269073 120.889153,207.403931 
	C127.838463,208.085510 134.885056,208.154846 141.928986,208.048141 
	C144.414352,208.010498 144.758881,206.724289 143.137695,204.119980 
	C142.986633,201.997833 142.835556,199.875671 142.473953,196.989227 
	C143.284286,195.320786 144.094604,193.652359 145.143921,191.537506 
	C145.210236,191.382294 145.276550,191.227081 145.962936,191.254883 
	C148.893616,194.596619 152.095108,197.638382 156.961441,195.468597 
	C162.172043,193.145279 163.486832,188.115402 163.832626,183.151016 
	C164.124390,178.962280 162.051987,175.588440 157.807373,173.858139 
	C152.839203,171.832870 150.297211,175.747650 146.989120,177.134476 
	C148.009430,159.811813 151.944321,143.014084 156.706436,126.727493 
	C159.735367,139.511063 162.764313,152.294632 165.855865,165.905441 
	C166.302322,168.575790 166.748779,171.246155 167.006653,174.634583 
	C167.295517,175.480438 167.584381,176.326309 167.874725,178.015518 
	C169.298721,186.070084 170.722717,194.124664 171.722549,202.701263 
	C169.704453,203.581390 167.686340,204.461517 164.921173,205.509979 
	C163.051544,206.022369 161.181915,206.534760 158.517090,207.265076 
	C165.120041,210.679260 170.941437,208.086060 176.710403,207.670792 
	C176.861481,207.659927 176.930176,206.504578 177.190567,205.117722 
	C177.144989,204.078415 177.099396,203.039124 177.522186,201.304398 
	C177.663452,191.872894 177.804733,182.441391 178.085007,172.328415 
	C178.027481,171.871613 177.969971,171.414825 177.990372,170.170807 
	C177.950241,169.118942 177.910110,168.067062 178.026703,166.131165 
	C178.410263,161.757278 178.793823,157.383377 179.929199,153.021484 
	C182.553360,153.746689 185.177536,154.471893 187.801697,155.197098 
	C187.900055,154.867813 187.998398,154.538513 188.096741,154.209213 
	C186.434036,153.339508 184.771332,152.469803 182.475067,151.268707 
	C185.286255,146.504547 187.814072,142.220627 190.341888,137.936691 
	C189.864502,137.687347 189.387115,137.438019 188.909714,137.188675 
	C187.382217,139.220337 185.737000,141.175583 184.356216,143.302490 
	C182.521973,146.127884 180.893951,149.087158 179.028961,151.156464 
	C178.722260,147.109131 178.415543,143.061783 178.719193,139.021408 
	C179.125092,139.036194 179.531006,139.050980 179.738983,139.616150 
	C180.067047,140.616348 180.395096,141.616547 180.723145,142.616745 
	C181.131668,142.429382 181.540207,142.242020 181.948746,142.054642 
	C181.319855,141.015472 180.690964,139.976288 179.953400,138.332382 
M191.682495,134.946243 
	C195.314072,131.975937 195.314148,131.924698 191.888412,130.543961 
	C191.589935,132.021072 191.289764,133.506485 190.711639,135.104691 
	C190.810379,135.073151 190.909119,135.041611 191.682495,134.946243 
M118.564583,165.999100 
	C118.564583,165.999100 118.972511,165.900009 119.859146,166.030060 
	C122.247093,165.994415 124.635033,165.958771 127.535583,165.858963 
	C127.690552,165.572433 127.845520,165.285919 128.111877,164.067429 
	C128.074463,156.044952 128.037033,148.022476 128.080475,139.380127 
	C128.080292,139.171753 128.080093,138.963379 128.043579,137.849121 
	C127.961723,123.429489 127.879868,109.009865 128.276932,94.144157 
	C128.964920,92.727264 130.573532,90.946480 130.182129,89.956230 
	C128.452194,85.579521 126.146919,81.430229 124.008430,76.357994 
	C124.139862,73.959854 124.133667,69.493736 124.423416,69.474449 
	C128.620697,69.195099 128.003769,66.309700 128.004807,63.699635 
	C128.006912,58.375656 127.798645,53.041027 128.072174,47.731136 
	C128.283432,43.630070 126.699203,41.978035 122.657555,41.986073 
	C95.538658,42.040012 68.419579,42.026363 41.300602,41.999771 
	C37.688137,41.996227 35.908630,43.223030 35.928131,47.270706 
	C36.070789,76.884460 36.032764,106.499084 35.915627,137.022095 
	C35.915627,146.576508 35.915627,156.130920 35.915627,165.899124 
	C56.540607,165.899124 76.442680,165.899124 96.841682,166.291138 
	C99.934120,168.359344 102.788605,171.031097 106.170731,172.364517 
	C112.365204,174.806747 116.738899,172.200531 118.564583,165.999100 
M193.635788,197.940231 
	C194.101669,197.072937 194.684311,196.247726 195.014420,195.331528 
	C197.097534,189.549835 195.406372,183.772766 191.299515,182.457016 
	C187.497772,181.239014 183.386444,184.945923 181.598969,191.064926 
	C180.466934,194.940186 180.899475,198.376511 184.453720,200.704468 
	C187.988617,203.019775 190.687759,201.051132 193.635788,197.940231 
M123.749397,198.620728 
	C122.193665,193.450195 118.398193,190.511047 113.725510,190.858429 
	C110.118530,191.126587 108.465034,193.595154 109.573257,197.057434 
	C111.571106,203.299057 118.376686,204.408920 123.749397,198.620728 
M189.155792,167.883438 
	C188.446854,172.042221 190.616058,174.341644 194.065536,175.853821 
	C197.512283,172.715363 197.828354,169.312393 194.966858,166.456100 
	C192.900574,164.393570 190.940491,164.239899 189.155792,167.883438 
M101.359962,181.044022 
	C100.294434,181.997467 98.191559,183.577621 98.328636,183.804504 
	C99.360878,185.513092 100.608040,187.352005 102.272339,188.299713 
	C103.012314,188.721085 105.611809,187.513855 106.088882,186.464600 
	C107.775352,182.755356 104.219025,182.374680 101.359962,181.044022 
M157.177124,160.337845 
	C156.104340,161.391098 154.331146,162.331390 154.138397,163.526581 
	C153.904343,164.977646 155.003738,166.643768 155.526230,168.216858 
	C156.288834,168.100357 157.051422,167.983856 157.814026,167.867355 
	C157.814026,165.503357 157.814026,163.139374 157.177124,160.337845 
z"/>
<path fill="#FCF4E3" opacity="1.000000" stroke="none" 
	d="
M127.798012,94.590233 
	C127.879868,109.009865 127.961723,123.429489 127.780220,138.324966 
	C127.331764,138.833527 127.146660,138.866241 126.509323,138.894287 
	C123.636314,139.015778 121.215530,139.141937 118.731689,138.780304 
	C118.762711,134.473434 118.875519,130.654678 118.943375,126.835129 
	C118.980286,124.757980 118.617226,123.438896 116.394592,125.932823 
	C115.423721,126.357216 114.748390,126.720779 113.597961,127.073479 
	C108.387352,127.056076 103.636765,127.267403 98.923363,126.941315 
	C96.891609,126.800751 94.936829,125.547714 92.344917,124.573807 
	C92.684456,124.085503 92.330208,124.594955 91.606400,125.131134 
	C90.254776,125.071838 89.272736,124.985832 88.249283,124.476593 
	C88.288803,122.080185 88.369713,120.107002 88.627090,118.139107 
	C88.803558,118.144402 89.141571,118.040680 89.601158,118.027084 
	C97.981125,118.013481 105.901505,118.013481 113.821884,118.013481 
	C113.818069,117.662361 113.814255,117.311241 113.810440,116.960121 
	C105.585632,116.960121 97.360832,116.960121 88.968575,116.908752 
	C88.801125,116.857391 88.450989,116.868103 88.421440,116.464806 
	C88.469971,114.719254 88.548050,113.377007 88.759903,111.893539 
	C89.017624,111.503929 89.027779,111.250938 88.876984,110.669846 
	C88.609192,109.565643 88.388588,108.784943 88.625648,108.000214 
	C97.372520,107.996185 105.661713,107.996185 113.950912,107.996185 
	C113.951210,107.662819 113.951515,107.329453 113.951813,106.996086 
	C105.356995,106.996086 96.762169,106.996086 88.099754,106.634735 
	C87.689415,105.496605 87.346664,104.719818 86.754745,103.723770 
	C85.635887,104.657707 84.766205,105.810913 83.438171,106.979218 
	C78.526077,106.998650 74.059967,106.810776 69.624237,107.095734 
	C67.669937,107.221275 65.777382,108.307831 63.856789,108.958084 
	C67.855782,109.062431 71.382828,108.349693 74.944702,108.047157 
	C77.890663,107.796944 80.877777,108.031158 83.872574,108.503265 
	C83.605965,114.971642 83.313438,120.987480 82.593491,127.002060 
	C79.910728,126.999054 77.655373,126.997299 75.314346,126.563995 
	C75.228668,122.182281 75.228668,118.232132 75.228668,114.281982 
	C74.870148,114.259445 74.511627,114.236908 74.153107,114.214371 
	C73.931679,114.787277 73.710243,115.360176 73.086815,115.910461 
	C69.474800,115.658531 70.046944,117.911934 70.039276,119.851700 
	C70.008980,127.514984 69.944511,135.178116 69.607208,143.011444 
	C68.283325,143.457535 67.244949,143.733490 66.122711,143.592361 
	C66.023651,141.596024 66.096024,140.005798 65.900772,138.449142 
	C65.870773,138.209976 64.608360,138.125366 63.553535,137.987854 
	C62.224270,137.985992 61.257393,137.965546 60.249214,137.492004 
	C60.353828,134.017548 60.499741,130.996155 60.753002,127.877716 
	C60.974846,127.469139 60.903069,127.216278 60.569878,126.595230 
	C60.571636,125.310516 60.648544,124.452660 60.650562,123.365265 
	C59.652176,123.363533 58.728676,123.591339 57.455685,123.877960 
	C56.427349,124.958580 55.748501,125.980385 54.666252,127.001320 
	C52.813961,127.000450 51.365070,127.000450 49.969719,127.000450 
	C49.840763,125.328484 49.741802,124.045418 49.642841,122.762352 
	C49.377071,122.740097 49.111301,122.717842 48.845531,122.695587 
	C48.241554,124.378365 47.637573,126.061142 46.942478,127.997787 
	C49.838921,127.997787 52.454708,127.997787 55.097927,128.461319 
	C55.116451,131.031662 55.365791,133.180084 55.034527,135.234940 
	C54.601608,137.920334 53.709362,140.531677 52.690994,142.914246 
	C52.085976,140.458878 51.804691,138.264114 51.523407,136.069366 
	C51.157494,136.087448 50.791580,136.105530 50.425667,136.123596 
	C50.179943,137.759460 49.934219,139.395309 49.376503,141.022003 
	C48.440960,140.985229 47.817406,140.957626 47.026939,140.668854 
	C46.266724,140.320938 45.673428,140.234146 44.727959,140.052979 
	C41.601112,138.676865 38.826431,137.395142 36.051750,136.113434 
	C36.032764,106.499084 36.070789,76.884460 35.928131,47.270706 
	C35.908630,43.223030 37.688137,41.996227 41.300602,41.999771 
	C68.419579,42.026363 95.538658,42.040012 122.657555,41.986073 
	C126.699203,41.978035 128.283432,43.630070 128.072174,47.731136 
	C127.798645,53.041027 128.006912,58.375656 128.004807,63.699635 
	C128.003769,66.309700 128.620697,69.195099 124.423416,69.474449 
	C124.133667,69.493736 124.139862,73.959854 123.908806,77.078865 
	C122.888023,78.130325 121.966858,78.460915 120.912552,78.492599 
	C118.166092,75.677261 117.024330,71.182701 112.271515,71.466370 
	C113.301689,68.146172 117.651581,66.069908 115.084183,61.728279 
	C114.850075,60.172794 114.774841,58.074867 114.070877,57.836903 
	C110.160927,56.515209 109.879929,53.130135 109.019646,50.015720 
	C108.504875,48.152157 108.012802,46.282326 107.510536,44.415314 
	C107.011803,44.318207 106.513069,44.221100 106.014336,44.123993 
	C105.659744,45.387978 105.305145,46.651966 104.487839,47.945637 
	C87.566193,47.975323 71.107262,47.975323 54.648335,47.975323 
	C54.648182,48.332634 54.648026,48.689949 54.647869,49.047260 
	C71.420837,49.047260 88.193810,49.047260 105.024994,49.425598 
	C105.484291,52.638866 106.842918,55.778286 106.061043,58.237034 
	C104.901398,61.883751 104.873756,64.883484 106.904701,68.369415 
	C107.296478,70.151985 107.672775,71.566757 107.784393,72.988228 
	C107.343208,72.998055 107.166725,73.001183 106.576874,73.004715 
	C103.777870,73.331085 101.392220,73.657059 99.001755,73.990250 
	C98.996941,73.997475 98.981239,74.004944 98.722733,73.993515 
	C98.291786,73.986549 98.119347,73.991005 97.716827,73.995377 
	C97.486755,73.995277 97.026619,73.993568 96.745468,73.705627 
	C93.965302,73.275894 91.466301,73.134102 88.574127,72.992775 
	C87.132530,72.993034 86.084099,72.992828 84.575485,72.995041 
	C80.208061,72.601059 76.300804,72.204659 71.344437,71.701820 
	C70.127266,77.901085 63.968575,75.884262 58.674789,75.994919 
	C57.180134,76.026161 55.675915,76.093719 54.192009,75.963341 
	C53.277958,75.883026 52.312538,75.604889 51.514973,75.157471 
	C50.188358,74.413261 48.978115,73.461617 46.593731,71.825104 
	C50.441235,78.821213 55.742203,76.780365 60.394745,76.959045 
	C65.205833,77.143814 70.030533,77.050865 74.847137,76.962616 
	C76.104660,76.939583 77.396301,76.605347 78.597641,76.195343 
	C80.429070,75.570297 82.195496,74.754776 83.852913,74.334770 
	C83.461967,75.750122 83.207619,76.850845 82.617851,77.971878 
	C81.680161,78.370331 81.077896,78.748459 80.475632,79.126595 
	C81.001343,79.409615 81.527054,79.692635 82.052765,79.975655 
	C82.389404,79.332268 82.726044,78.688881 83.307312,77.925369 
	C84.025551,77.541672 84.499161,77.278114 85.443085,77.009491 
	C93.613586,77.016754 101.313759,77.029083 109.101791,77.373520 
	C110.464790,80.123917 111.739929,82.542213 112.547806,84.976135 
	C107.051529,84.989075 102.022507,84.986389 96.825508,84.740379 
	C96.102051,84.332985 95.546585,84.168922 94.680893,83.900803 
	C91.857170,84.198593 89.356422,84.808357 86.827797,84.963417 
	C79.130226,85.435478 71.459534,84.001045 63.704788,84.886444 
	C58.441566,85.487389 53.054779,85.000771 47.723408,85.029396 
	C47.504761,85.030563 47.287701,85.326866 47.068352,85.491043 
	C47.832886,86.010254 48.598961,86.524086 49.281509,86.981895 
	C48.395222,88.365723 47.612339,89.588089 47.147781,90.313438 
	C49.218082,90.313438 50.979778,90.313438 52.837944,90.313438 
	C52.566963,89.421455 52.111206,87.921257 51.719276,86.631149 
	C58.921280,83.993927 65.832344,87.631752 73.056946,86.286255 
	C80.142212,84.966721 87.665367,85.998390 95.330330,85.999374 
	C96.109550,86.000381 96.554771,86.000191 97.467529,85.999405 
	C103.260429,86.007393 108.585793,86.015968 114.128662,86.214722 
	C114.876915,86.612663 115.407669,86.820412 115.989433,87.373291 
	C118.897408,91.826477 121.636040,96.137001 127.798012,94.590233 
M69.896713,98.735268 
	C69.579590,100.146019 69.262474,101.556778 68.945351,102.967529 
	C69.203171,103.032280 69.460983,103.097038 69.718803,103.161789 
	C70.482086,101.952957 71.245369,100.744118 72.057335,99.458183 
	C72.964966,100.250130 73.658821,100.855553 74.694542,101.759254 
	C74.776909,100.279968 74.834732,99.241554 74.904816,97.982857 
	C77.064682,97.982857 79.035416,97.982857 81.942665,97.989883 
	C92.575699,97.989883 103.208740,97.989883 113.841774,97.989883 
	C113.839745,97.642876 113.837715,97.295876 113.835678,96.948868 
	C102.882797,96.948868 91.929924,96.948868 80.082771,96.985214 
	C77.389229,96.984505 74.695686,96.983803 71.064651,96.995880 
	C63.096943,96.995880 55.129234,96.995880 47.161526,96.995880 
	C47.164970,97.339775 47.168415,97.683678 47.171860,98.027573 
	C54.768047,98.027573 62.364239,98.027573 69.896713,98.735268 
M54.476460,109.690163 
	C57.335106,108.798561 60.193748,107.906960 63.052395,107.015358 
	C62.904118,106.606529 62.755840,106.197701 62.607563,105.788872 
	C59.840961,106.873840 57.074364,107.958801 54.476460,109.690163 
M49.796619,118.121391 
	C50.228451,118.912575 50.660278,119.703751 51.326401,120.924194 
	C51.849842,119.675362 52.284531,118.638268 52.812210,117.379326 
	C50.591740,117.379326 48.886501,117.379326 47.181259,117.379326 
	C47.192966,117.540886 47.204678,117.702446 47.216385,117.863998 
	C47.863438,117.918549 48.510490,117.973091 49.796619,118.121391 
M80.377022,99.506119 
	C79.794182,101.287315 79.211342,103.068520 78.628494,104.849716 
	C79.062515,104.971130 79.496529,105.092545 79.930550,105.213959 
	C80.285423,103.251610 80.640305,101.289268 80.377022,99.506119 
M78.035934,83.455437 
	C78.612366,82.988113 79.188805,82.520790 79.765236,82.053467 
	C79.338326,81.805313 78.911415,81.557167 78.484505,81.309013 
	C78.143227,82.102844 77.801949,82.896675 78.035934,83.455437 
M88.218170,83.580528 
	C88.986702,83.510521 89.755226,83.440514 90.523758,83.370506 
	C90.416908,82.926857 90.310051,82.483208 90.203201,82.039566 
	C89.355484,82.453667 88.507774,82.867767 88.218170,83.580528 
M57.396244,93.956032 
	C57.813274,93.701698 58.230305,93.447357 58.647335,93.193016 
	C58.478760,92.989540 58.310181,92.786064 58.141602,92.582588 
	C57.708351,93.047264 57.275105,93.511940 57.396244,93.956032 
M77.849609,117.461159 
	C78.563950,117.565193 79.278282,117.669228 79.992622,117.773262 
	C80.003830,117.552895 80.015038,117.332527 80.026245,117.112160 
	C79.431320,117.112160 78.836388,117.112160 77.849609,117.461159 
M53.884262,113.204430 
	C53.771095,113.090393 53.672894,112.916672 53.539524,112.883240 
	C53.450134,112.860825 53.213734,113.033012 53.209507,113.125702 
	C53.179989,113.773125 53.193897,114.422523 53.193897,115.071297 
	C53.367970,115.074165 53.542042,115.077042 53.716114,115.079918 
	C53.802528,114.632347 53.888943,114.184784 53.884262,113.204430 
M63.808487,90.749786 
	C63.971867,90.629562 64.135246,90.509338 64.298622,90.389107 
	C64.071198,90.414391 63.843769,90.439674 63.808487,90.749786 
M57.595089,105.517052 
	C57.595089,105.517052 57.476212,105.589951 57.595089,105.517052 
z"/>
<path fill="#F7BB78" opacity="1.000000" stroke="none" 
	d="
M47.193855,140.930008 
	C47.817406,140.957626 48.440960,140.985229 49.450706,141.457672 
	C49.624161,146.236862 49.411415,150.571228 49.056667,155.179581 
	C48.854023,155.607132 48.766476,155.756287 48.740433,155.915497 
	C48.715199,156.069809 48.753185,156.234467 48.763405,156.394577 
	C51.509453,155.907761 54.255501,155.420944 56.995422,154.965942 
	C56.989292,154.997757 56.937286,154.959106 57.369621,154.985031 
	C60.211636,154.696732 62.621315,154.382523 65.369675,154.054443 
	C66.500397,153.928864 67.292450,153.817154 68.084503,153.705429 
	C68.078110,153.508713 68.071716,153.312012 68.065323,153.115295 
	C67.341797,153.053253 66.618279,152.991196 65.918732,152.483307 
	C66.030663,149.361465 66.118614,146.685455 66.206566,144.009460 
	C67.244949,143.733490 68.283325,143.457535 69.636879,143.473724 
	C69.968346,146.510391 69.984642,149.254883 70.275757,152.301056 
	C73.330872,152.578400 76.136086,152.782959 78.886459,152.483658 
	C85.271164,151.788834 91.618706,150.277847 98.001129,150.158615 
	C105.702682,150.014740 111.807213,147.697250 116.037590,141.013306 
	C116.055016,140.928406 116.054115,140.755035 116.337151,140.803497 
	C117.345047,140.324020 118.069901,139.796051 118.794754,139.268082 
	C121.215530,139.141937 123.636314,139.015778 126.620438,139.132141 
	C127.455719,139.583115 127.727669,139.791550 127.999611,140.000000 
	C128.037033,148.022476 128.074463,156.044952 127.845062,164.631134 
	C127.310295,165.374420 127.125206,165.617188 127.022980,165.923126 
	C124.635033,165.958771 122.247093,165.994415 119.317230,165.771774 
	C118.594437,165.274124 118.360756,165.109848 117.904800,164.723633 
	C114.532677,161.131653 111.716263,157.284180 108.017708,154.698578 
	C104.389389,152.162094 99.680840,148.763031 95.324532,152.710709 
	C90.923477,156.698944 94.227249,161.267944 96.170532,165.431396 
	C96.240669,165.581680 96.287216,165.742966 96.344757,165.899124 
	C76.442680,165.899124 56.540607,165.899124 35.915627,165.899124 
	C35.915627,156.130920 35.915627,146.576508 35.983688,136.567764 
	C38.826431,137.395142 41.601112,138.676865 44.710991,140.357819 
	C44.987522,141.159164 44.928852,141.561264 44.464771,141.989777 
	C43.602531,142.168671 42.757111,142.296768 42.745796,142.477158 
	C42.473724,146.815125 42.224262,151.159027 42.246330,155.500458 
	C42.247753,155.780853 44.466751,156.049957 46.067940,156.116364 
	C46.719090,150.915604 46.956474,145.922806 47.193855,140.930008 
z"/>
<path fill="#83B7A2" opacity="1.000000" stroke="none" 
	d="
M176.981613,55.872520 
	C179.990112,59.016205 183.804703,61.720936 185.813080,65.409210 
	C188.636459,70.594193 190.484985,76.406494 192.094162,82.134865 
	C194.923721,92.207573 192.749039,95.385582 182.554855,97.377777 
	C181.411621,97.601189 180.270828,97.837097 178.263794,98.049332 
	C175.441025,98.022369 173.440125,98.262444 171.538177,97.932327 
	C169.729874,97.618469 167.367706,97.191658 166.444809,95.935799 
	C165.346542,94.441277 165.523117,92.009911 164.967041,89.697418 
	C162.521469,87.571877 160.256165,85.733383 157.970901,83.616333 
	C157.293625,82.893036 156.636276,82.448288 155.978943,82.003540 
	C155.220627,79.667961 153.718872,77.286743 153.858871,75.006302 
	C154.149719,70.268852 152.142365,68.693672 147.814163,68.895523 
	C145.837753,68.987686 143.852432,68.888863 141.422211,68.484329 
	C141.322586,67.048332 141.671921,66.004662 142.134796,64.682983 
	C142.135025,62.515259 142.021698,60.625557 141.908386,58.735855 
	C143.027710,58.128685 144.147018,57.521511 145.836884,57.186295 
	C147.966965,57.628368 149.526535,57.798485 151.469559,57.970474 
	C155.564743,57.949383 159.276459,57.926414 163.118561,58.230896 
	C164.827576,61.524731 166.564026,64.810356 170.519913,63.823551 
	C172.552811,63.316441 174.342896,61.263821 175.879654,59.578552 
	C176.661453,58.721169 176.639969,57.131279 176.981613,55.872520 
M174.181671,76.098732 
	C174.916016,79.598976 175.650375,83.099220 176.402054,86.682060 
	C181.958511,84.246796 181.755005,81.785477 174.545441,65.626541 
	C174.330856,69.754959 174.188538,72.493126 174.181671,76.098732 
z"/>
<path fill="#465377" opacity="1.000000" stroke="none" 
	d="
M177.012711,107.001205 
	C177.332657,116.696625 177.652603,126.392044 177.953400,136.865875 
	C177.992432,138.101013 178.050644,138.557739 178.108841,139.014450 
	C178.415543,143.061783 178.722260,147.109131 179.048325,151.827835 
	C179.104248,152.669296 179.140808,152.839401 179.177383,153.009491 
	C178.793823,157.383377 178.410263,161.757278 177.680817,166.567291 
	C177.156754,167.012268 176.978577,167.021088 176.456421,166.949326 
	C173.547089,163.824478 170.586884,162.730164 166.655243,165.022858 
	C166.176086,165.048599 165.984680,165.063400 165.793259,165.078201 
	C162.764313,152.294632 159.735367,139.511063 156.382233,126.041466 
	C155.638535,120.495316 155.219040,115.635193 154.808167,110.875015 
	C156.961258,110.141815 158.462769,109.630501 160.294128,109.012894 
	C163.065994,108.564003 165.508011,108.221397 168.263184,107.896881 
	C169.339813,107.598938 170.103302,107.282928 171.309143,106.978714 
	C173.505234,106.994080 175.258972,106.997643 177.012711,107.001205 
z"/>
<path fill="#475477" opacity="1.000000" stroke="none" 
	d="
M144.904938,191.983917 
	C144.094604,193.652359 143.284286,195.320786 142.231155,197.131699 
	C139.399872,198.562683 136.811401,199.851181 134.222916,201.139694 
	C133.050476,176.650986 130.411850,152.165695 135.251404,127.725250 
	C136.468445,121.579071 136.455963,115.189430 137.507935,108.443977 
	C141.336273,108.262352 144.665207,108.548424 148.196442,109.144714 
	C151.879807,110.409325 153.443970,111.471146 149.991684,114.913773 
	C148.007416,116.892479 146.894531,120.028343 146.074661,122.842911 
	C142.298370,135.806870 140.841522,149.095276 140.973755,162.587982 
	C141.071075,172.517624 140.992859,182.448975 140.992859,192.673233 
	C142.700729,192.372299 143.802841,192.178116 144.904938,191.983917 
z"/>
<path fill="#343959" opacity="1.000000" stroke="none" 
	d="
M145.024429,191.760712 
	C143.802841,192.178116 142.700729,192.372299 140.992859,192.673233 
	C140.992859,182.448975 141.071075,172.517624 140.973755,162.587982 
	C140.841522,149.095276 142.298370,135.806870 146.074661,122.842911 
	C146.894531,120.028343 148.007416,116.892479 149.991684,114.913773 
	C153.443970,111.471146 151.879807,110.409325 148.596939,109.107681 
	C152.518173,108.880013 156.241226,108.999603 159.964279,109.119202 
	C158.462769,109.630501 156.961258,110.141815 154.808167,110.875015 
	C155.219040,115.635193 155.638535,120.495316 156.104492,125.810371 
	C151.944321,143.014084 148.009430,159.811813 146.867584,177.942856 
	C146.278320,182.858109 145.810577,186.964996 145.342850,191.071869 
	C145.276550,191.227081 145.210236,191.382294 145.024429,191.760712 
z"/>
<path fill="#84B7A1" opacity="1.000000" stroke="none" 
	d="
M96.593216,166.095123 
	C96.287216,165.742966 96.240669,165.581680 96.170532,165.431396 
	C94.227249,161.267944 90.923477,156.698944 95.324532,152.710709 
	C99.680840,148.763031 104.389389,152.162094 108.017708,154.698578 
	C111.716263,157.284180 114.532677,161.131653 117.897690,164.980911 
	C118.089073,165.704437 118.118080,165.873688 118.147095,166.042938 
	C116.738899,172.200531 112.365204,174.806747 106.170731,172.364517 
	C102.788605,171.031097 99.934120,168.359344 96.593216,166.095123 
z"/>
<path fill="#BEE1CC" opacity="1.000000" stroke="none" 
	d="
M145.652893,191.163376 
	C145.810577,186.964996 146.278320,182.858109 146.896576,178.369522 
	C150.297211,175.747650 152.839203,171.832870 157.807373,173.858139 
	C162.051987,175.588440 164.124390,178.962280 163.832626,183.151016 
	C163.486832,188.115402 162.172043,193.145279 156.961441,195.468597 
	C152.095108,197.638382 148.893616,194.596619 145.652893,191.163376 
z"/>
<path fill="#F7C2A3" opacity="1.000000" stroke="none" 
	d="
M142.059540,33.925385 
	C142.699158,33.125191 143.338776,32.324993 144.436646,31.266224 
	C149.248871,32.467346 153.152618,32.164200 156.325180,28.109547 
	C156.874542,28.136923 157.073044,28.333073 157.086838,29.069782 
	C157.549988,30.991690 158.065125,32.507328 158.755432,34.307983 
	C159.277466,34.868675 159.624313,35.144341 160.006760,35.643555 
	C160.252640,36.035789 160.462936,36.204472 160.673233,36.373154 
	C160.794281,35.949577 160.915314,35.526001 161.194412,34.834614 
	C162.535522,34.605785 163.718567,34.644772 164.901611,34.683754 
	C164.040024,36.912045 163.178436,39.140335 161.803177,41.709259 
	C157.820694,45.038044 154.351852,48.026192 150.883026,51.014343 
	C145.099548,47.969791 144.851639,41.967461 143.084564,36.057068 
	C142.643814,34.919590 142.351685,34.422489 142.059540,33.925385 
M146.814133,38.053425 
	C146.780075,37.820942 146.746033,37.588463 146.711975,37.355984 
	C146.462921,37.560699 146.213852,37.765415 145.510880,38.137184 
	C145.554169,38.380310 145.597473,38.623432 145.640778,38.866558 
	C145.886734,38.686363 146.132675,38.506165 146.814133,38.053425 
M155.596878,34.517857 
	C155.596878,34.517857 155.480453,34.587967 155.596878,34.517857 
z"/>
<path fill="#465377" opacity="1.000000" stroke="none" 
	d="
M172.146713,202.179230 
	C170.722717,194.124664 169.298721,186.070084 168.118713,177.303055 
	C171.557144,175.397018 174.751587,174.203461 177.946014,173.009888 
	C177.804733,182.441391 177.663452,191.872894 176.876099,201.671158 
	C174.868912,202.085022 173.507812,202.132126 172.146713,202.179230 
z"/>
<path fill="#82B6A0" opacity="1.000000" stroke="none" 
	d="
M160.294128,109.012901 
	C156.241226,108.999603 152.518173,108.880013 148.394623,108.797455 
	C144.665207,108.548424 141.336273,108.262352 137.565765,108.007004 
	C137.085434,105.548164 137.180511,103.047447 136.974442,100.571800 
	C136.709854,97.393105 138.142456,96.335175 141.765228,97.159866 
	C149.462708,99.679985 156.537949,101.692307 163.475113,104.102127 
	C165.196350,104.700043 166.470413,106.585289 167.950027,107.878799 
	C165.508011,108.221397 163.065994,108.564003 160.294128,109.012901 
z"/>
<path fill="#84B7A2" opacity="1.000000" stroke="none" 
	d="
M193.376068,198.218140 
	C190.687759,201.051132 187.988617,203.019775 184.453720,200.704468 
	C180.899475,198.376511 180.466934,194.940186 181.598969,191.064926 
	C183.386444,184.945923 187.497772,181.239014 191.299515,182.457016 
	C195.406372,183.772766 197.097534,189.549835 195.014420,195.331528 
	C194.684311,196.247726 194.101669,197.072937 193.376068,198.218140 
z"/>
<path fill="#729F8C" opacity="1.000000" stroke="none" 
	d="
M168.263184,107.896873 
	C166.470413,106.585289 165.196350,104.700043 163.475113,104.102127 
	C156.537949,101.692307 149.462708,99.679985 142.198212,97.231216 
	C144.713272,96.862480 147.468582,96.783379 150.940979,96.756287 
	C155.608505,96.412941 159.558945,96.017570 163.258453,95.647316 
	C163.943756,93.592773 164.545532,91.788620 165.147308,89.984467 
	C165.523117,92.009911 165.346542,94.441277 166.444809,95.935799 
	C167.367706,97.191658 169.729874,97.618469 171.538177,97.932327 
	C173.440125,98.262444 175.441025,98.022369 177.874969,98.055542 
	C178.094208,100.206520 177.837173,102.333412 176.963135,104.875641 
	C174.519699,105.849632 172.693237,106.408272 170.866791,106.966919 
	C170.103302,107.282928 169.339813,107.598938 168.263184,107.896873 
z"/>
<path fill="#485477" opacity="1.000000" stroke="none" 
	d="
M157.138840,28.663513 
	C157.073044,28.333073 156.874542,28.136923 155.932983,28.117458 
	C153.541870,28.393480 151.761108,28.627104 149.922455,28.526894 
	C147.631424,25.883001 146.213486,23.381878 147.975937,20.135330 
	C153.053528,21.398802 157.847351,24.729454 163.519302,22.176519 
	C163.807877,22.046629 165.922714,24.409958 165.991196,25.677105 
	C166.139435,28.419306 165.511108,31.203482 165.050995,34.327122 
	C163.718567,34.644772 162.535522,34.605785 160.924484,34.901798 
	C160.321381,35.297863 160.146271,35.358936 159.971176,35.420006 
	C159.624313,35.144341 159.277466,34.868675 158.817444,33.927906 
	C158.182480,31.729710 157.660660,30.196611 157.138840,28.663513 
z"/>
<path fill="#73A28E" opacity="1.000000" stroke="none" 
	d="
M128.037476,94.367195 
	C121.636040,96.137001 118.897408,91.826477 116.303314,87.224579 
	C118.059349,84.084328 119.552521,81.437920 121.045692,78.791504 
	C121.966858,78.460915 122.888023,78.130325 123.929558,77.499176 
	C126.146919,81.430229 128.452194,85.579521 130.182129,89.956230 
	C130.573532,90.946480 128.964920,92.727264 128.037476,94.367195 
z"/>
<path fill="#F8C0A0" opacity="1.000000" stroke="none" 
	d="
M164.967041,89.697418 
	C164.545532,91.788620 163.943756,93.592773 163.258453,95.647316 
	C159.558945,96.017570 155.608505,96.412941 151.397308,96.705879 
	C150.101624,93.930984 149.066711,91.258514 148.036789,88.598946 
	C150.283081,88.330940 152.327042,88.087074 154.740601,88.101059 
	C155.227249,88.402420 155.344299,88.445946 155.461349,88.489471 
	C155.323242,88.312134 155.185135,88.134796 155.047028,87.957458 
	C155.335892,86.823021 155.624771,85.688583 156.363373,84.237991 
	C157.205673,83.912857 157.598267,83.903877 157.990845,83.894890 
	C160.256165,85.733383 162.521469,87.571877 164.967041,89.697418 
z"/>
<path fill="#F49867" opacity="1.000000" stroke="none" 
	d="
M123.741028,198.993652 
	C118.376686,204.408920 111.571106,203.299057 109.573257,197.057434 
	C108.465034,193.595154 110.118530,191.126587 113.725510,190.858429 
	C118.398193,190.511047 122.193665,193.450195 123.741028,198.993652 
z"/>
<path fill="#94C1AE" opacity="1.000000" stroke="none" 
	d="
M176.664749,55.664776 
	C176.639969,57.131279 176.661453,58.721169 175.879654,59.578552 
	C174.342896,61.263821 172.552811,63.316441 170.519913,63.823551 
	C166.564026,64.810356 164.827576,61.524731 163.249115,57.955284 
	C164.133698,56.242306 165.018097,55.132393 165.902496,54.022480 
	C169.384293,54.500664 172.866089,54.978848 176.664749,55.664776 
z"/>
<path fill="#FAC2A1" opacity="1.000000" stroke="none" 
	d="
M165.525330,53.996330 
	C165.018097,55.132393 164.133698,56.242306 163.118744,57.627831 
	C159.276459,57.926414 155.564743,57.949383 151.416870,57.664825 
	C150.623260,56.624897 150.265808,55.892494 149.908356,55.160088 
	C150.182480,54.910351 150.456604,54.660606 151.288513,54.222164 
	C154.144638,52.887257 156.641891,52.009624 158.674332,50.504379 
	C160.131256,49.425369 160.966187,47.506538 162.078598,45.962387 
	C162.054184,47.327324 161.620575,48.865791 162.107468,50.013901 
	C162.735977,51.495956 164.100571,52.665859 165.525330,53.996330 
z"/>
<path fill="#626C89" opacity="1.000000" stroke="none" 
	d="
M178.015503,172.669159 
	C174.751587,174.203461 171.557144,175.397018 168.117981,176.881378 
	C167.584381,176.326309 167.295517,175.480438 167.335724,174.019043 
	C167.993240,171.856461 168.321655,170.309433 168.894653,167.610352 
	C169.835846,169.652130 170.291824,170.641266 170.747787,171.630402 
	C172.146072,169.992645 173.198303,167.410904 172.590591,166.930923 
	C171.120087,165.769562 168.875549,165.588257 166.943008,165.011887 
	C170.586884,162.730164 173.547089,163.824478 176.505188,167.306763 
	C177.236099,168.815857 177.574280,169.886932 177.912460,170.958023 
	C177.969971,171.414825 178.027481,171.871613 178.015503,172.669159 
z"/>
<path fill="#E26B4E" opacity="1.000000" stroke="none" 
	d="
M134.018570,201.421661 
	C136.811401,199.851181 139.399872,198.562683 142.336426,197.513855 
	C142.835556,199.875671 142.986633,201.997833 142.720245,204.579361 
	C139.856430,205.296997 137.390564,205.864685 134.970016,205.712418 
	C133.139450,205.597290 131.366730,204.562729 129.568268,203.937347 
	C130.983582,203.192764 132.398895,202.448196 134.018570,201.421661 
z"/>
<path fill="#BEE1CC" opacity="1.000000" stroke="none" 
	d="
M189.293442,167.516235 
	C190.940491,164.239899 192.900574,164.393570 194.966858,166.456100 
	C197.828354,169.312393 197.512283,172.715363 194.065536,175.853821 
	C190.616058,174.341644 188.446854,172.042221 189.293442,167.516235 
z"/>
<path fill="#484863" opacity="1.000000" stroke="none" 
	d="
M129.239929,203.968353 
	C131.366730,204.562729 133.139450,205.597290 134.970016,205.712418 
	C137.390564,205.864685 139.856430,205.296997 142.729248,204.962799 
	C144.758881,206.724289 144.414352,208.010498 141.928986,208.048141 
	C134.885056,208.154846 127.838463,208.085510 120.889153,207.403931 
	C123.563301,206.269073 126.237442,205.134216 129.239929,203.968353 
z"/>
<path fill="#343959" opacity="1.000000" stroke="none" 
	d="
M147.655746,20.031246 
	C146.213486,23.381878 147.631424,25.883001 149.509979,28.590340 
	C147.777527,28.819822 146.399612,28.652027 145.021713,28.484232 
	C144.755768,28.297031 144.384125,28.169085 144.240677,27.913208 
	C143.138535,25.947235 142.080719,23.956421 141.009140,21.973322 
	C143.117950,21.291271 145.226746,20.609219 147.655746,20.031246 
z"/>
<path fill="#FCF6F5" opacity="1.000000" stroke="none" 
	d="
M179.553284,153.015488 
	C179.140808,152.839401 179.104248,152.669296 179.122498,152.244049 
	C180.893951,149.087158 182.521973,146.127884 184.356216,143.302490 
	C185.737000,141.175583 187.382217,139.220337 188.909714,137.188675 
	C189.387115,137.438019 189.864502,137.687347 190.341888,137.936691 
	C187.814072,142.220627 185.286255,146.504547 182.475067,151.268707 
	C184.771332,152.469803 186.434036,153.339508 188.096741,154.209213 
	C187.998398,154.538513 187.900055,154.867813 187.801697,155.197098 
	C185.177536,154.471893 182.553360,153.746689 179.553284,153.015488 
z"/>
<path fill="#C2E3CF" opacity="1.000000" stroke="none" 
	d="
M101.736771,181.092865 
	C104.219025,182.374680 107.775352,182.755356 106.088882,186.464600 
	C105.611809,187.513855 103.012314,188.721085 102.272339,188.299713 
	C100.608040,187.352005 99.360878,185.513092 98.328636,183.804504 
	C98.191559,183.577621 100.294434,181.997467 101.736771,181.092865 
z"/>
<path fill="#F28460" opacity="1.000000" stroke="none" 
	d="
M162.052612,45.565063 
	C160.966187,47.506538 160.131256,49.425369 158.674332,50.504379 
	C156.641891,52.009624 154.144638,52.887257 151.450378,53.994301 
	C151.060028,53.214237 151.065598,52.473339 150.977097,51.373390 
	C154.351852,48.026192 157.820694,45.038044 161.637329,42.025345 
	C161.998962,43.056446 162.012802,44.112091 162.052612,45.565063 
z"/>
<path fill="#73A28E" opacity="1.000000" stroke="none" 
	d="
M142.021240,64.960999 
	C141.671921,66.004662 141.322586,67.048332 140.966583,68.425613 
	C138.395813,68.759232 135.831711,68.759232 131.710068,68.759232 
	C134.876129,65.219734 137.114685,62.717140 139.678070,60.516212 
	C140.675690,62.198914 141.348480,63.579956 142.021240,64.960999 
z"/>
<path fill="#485477" opacity="1.000000" stroke="none" 
	d="
M166.655243,165.022858 
	C168.875549,165.588257 171.120087,165.769562 172.590591,166.930923 
	C173.198303,167.410904 172.146072,169.992645 170.747787,171.630402 
	C170.291824,170.641266 169.835846,169.652130 168.894653,167.610352 
	C168.321655,170.309433 167.993240,171.856461 167.430023,173.660004 
	C166.748779,171.246155 166.302322,168.575790 165.824554,165.491821 
	C165.984680,165.063400 166.176086,165.048599 166.655243,165.022858 
z"/>
<path fill="#E28F65" opacity="1.000000" stroke="none" 
	d="
M171.934631,202.440247 
	C173.507812,202.132126 174.868912,202.085022 176.641907,202.018860 
	C177.099396,203.039124 177.144989,204.078415 176.682037,205.523361 
	C172.671753,205.733215 169.169998,205.537430 165.668243,205.341644 
	C167.686340,204.461517 169.704453,203.581390 171.934631,202.440247 
z"/>
<path fill="#262A4E" opacity="1.000000" stroke="none" 
	d="
M165.294708,205.425812 
	C169.169998,205.537430 172.671753,205.733215 176.605408,205.905975 
	C176.930176,206.504578 176.861481,207.659927 176.710403,207.670792 
	C170.941437,208.086060 165.120041,210.679260 158.517090,207.265076 
	C161.181915,206.534760 163.051544,206.022369 165.294708,205.425812 
z"/>
<path fill="#F9C080" opacity="1.000000" stroke="none" 
	d="
M157.495575,160.556610 
	C157.814026,163.139374 157.814026,165.503357 157.814026,167.867355 
	C157.051422,167.983856 156.288834,168.100357 155.526230,168.216858 
	C155.003738,166.643768 153.904343,164.977646 154.138397,163.526581 
	C154.331146,162.331390 156.104340,161.391098 157.495575,160.556610 
z"/>
<path fill="#F28460" opacity="1.000000" stroke="none" 
	d="
M144.743988,28.694618 
	C146.399612,28.652027 147.777527,28.819822 149.567902,28.924173 
	C151.761108,28.627104 153.541870,28.393480 155.714813,28.151943 
	C153.152618,32.164200 149.248871,32.467346 144.514618,30.955570 
	C144.244995,30.237326 144.355637,29.571165 144.743988,28.694618 
z"/>
<path fill="#81B59F" opacity="1.000000" stroke="none" 
	d="
M142.134796,64.682983 
	C141.348480,63.579956 140.675690,62.198914 140.003052,60.424641 
	C140.451172,59.664127 140.899170,59.296844 141.627777,58.832710 
	C142.021698,60.625557 142.135025,62.515259 142.134796,64.682983 
z"/>
<path fill="#FCF6F5" opacity="1.000000" stroke="none" 
	d="
M190.989624,134.991898 
	C191.289764,133.506485 191.589935,132.021072 191.888412,130.543961 
	C195.314148,131.924698 195.314072,131.975937 191.341202,134.973114 
	C190.999908,135.000000 190.989624,134.991898 190.989624,134.991898 
z"/>
<path fill="#81B59F" opacity="1.000000" stroke="none" 
	d="
M149.596939,55.214489 
	C150.265808,55.892494 150.623260,56.624897 151.033401,57.662949 
	C149.526535,57.798485 147.966965,57.628368 146.161621,57.151901 
	C147.039078,56.320000 148.162292,55.794445 149.596939,55.214489 
z"/>
<path fill="#FCF6F5" opacity="1.000000" stroke="none" 
	d="
M180.062073,138.937119 
	C180.690964,139.976288 181.319855,141.015472 181.948746,142.054642 
	C181.540207,142.242020 181.131668,142.429382 180.723145,142.616745 
	C180.395096,141.616547 180.067047,140.616348 179.869431,139.308319 
	C179.999878,139.000488 180.062073,138.937119 180.062073,138.937119 
z"/>
<path fill="#3A486E" opacity="1.000000" stroke="none" 
	d="
M171.309143,106.978714 
	C172.693237,106.408272 174.519699,105.849632 176.690598,105.156380 
	C177.078323,105.464401 177.121597,105.907028 177.088806,106.675430 
	C175.258972,106.997643 173.505234,106.994080 171.309143,106.978714 
z"/>
<path fill="#81B59F" opacity="1.000000" stroke="none" 
	d="
M157.970901,83.616333 
	C157.598267,83.903877 157.205673,83.912857 156.519897,83.916222 
	C156.143860,83.489601 156.061035,83.068604 155.978577,82.325569 
	C156.636276,82.448288 157.293625,82.893036 157.970901,83.616333 
z"/>
<path fill="#30406A" opacity="1.000000" stroke="none" 
	d="
M177.951416,170.564423 
	C177.574280,169.886932 177.236099,168.815857 176.849182,167.387329 
	C176.978577,167.021088 177.156754,167.012268 177.602478,167.009308 
	C177.910110,168.067062 177.950241,169.118942 177.951416,170.564423 
z"/>
<path fill="#FCF6F5" opacity="1.000000" stroke="none" 
	d="
M178.414017,139.017929 
	C178.050644,138.557739 177.992432,138.101013 178.040604,137.313705 
	C178.749130,137.432861 179.351257,137.882629 180.007736,138.634750 
	C180.062073,138.937119 179.999878,139.000488 179.968384,139.033127 
	C179.531006,139.050980 179.125092,139.036194 178.414017,139.017929 
z"/>
<path fill="#EDBA9E" opacity="1.000000" stroke="none" 
	d="
M141.833130,34.048523 
	C142.351685,34.422489 142.643814,34.919590 142.899750,35.718475 
	C142.444595,35.404060 142.025665,34.787861 141.833130,34.048523 
z"/>
<path fill="#FCF6F5" opacity="1.000000" stroke="none" 
	d="
M191.003876,135.005035 
	C190.909119,135.041611 190.810379,135.073151 190.850632,135.048294 
	C190.989624,134.991898 190.999908,135.000000 191.003876,135.005035 
z"/>
<path fill="#F8B96F" opacity="1.000000" stroke="none" 
	d="
M128.040039,139.690063 
	C127.727669,139.791550 127.455719,139.583115 127.072662,139.136810 
	C127.146660,138.866241 127.331764,138.833527 127.798370,138.777893 
	C128.080093,138.963379 128.080292,139.171753 128.040039,139.690063 
z"/>
<path fill="#F8B96F" opacity="1.000000" stroke="none" 
	d="
M127.279282,165.891052 
	C127.125206,165.617188 127.310295,165.374420 127.789368,165.097107 
	C127.845520,165.285919 127.690552,165.572433 127.279282,165.891052 
z"/>
<path fill="#F8B96F" opacity="1.000000" stroke="none" 
	d="
M118.355835,166.021027 
	C118.118080,165.873688 118.089073,165.704437 118.067169,165.277924 
	C118.360756,165.109848 118.594437,165.274124 118.873917,165.706757 
	C118.972511,165.900009 118.564583,165.999100 118.355835,166.021027 
z"/>
<path fill="#9DCCB5" opacity="1.000000" stroke="none" 
	d="
M83.896515,106.964111 
	C84.766205,105.810913 85.635887,104.657707 86.684448,104.179977 
	C86.566521,118.103722 86.234604,131.351425 86.020042,144.601028 
	C85.994972,146.149658 86.617561,147.708786 86.666115,149.470795 
	C84.565460,149.417801 82.738586,149.157043 80.932922,148.518524 
	C80.965424,147.132004 80.976723,146.123230 81.389725,145.001968 
	C82.199677,143.736542 82.927666,142.592575 82.960312,141.429108 
	C83.095161,136.623734 83.019333,131.812439 83.020912,127.003326 
	C83.313438,120.987480 83.605965,114.971642 83.922943,108.233063 
	C83.930435,107.328262 83.913467,107.146179 83.896515,106.964111 
z"/>
<path fill="#FCC5A5" opacity="1.000000" stroke="none" 
	d="
M104.950554,47.915951 
	C105.305145,46.651966 105.659744,45.387978 106.014336,44.123993 
	C106.513069,44.221100 107.011803,44.318207 107.510536,44.415314 
	C108.012802,46.282326 108.504875,48.152157 109.019646,50.015720 
	C109.879929,53.130135 110.160927,56.515209 114.070877,57.836903 
	C114.774841,58.074867 114.850075,60.172794 114.711975,61.760468 
	C112.496048,64.976646 112.734062,70.266815 106.889221,68.001610 
	C104.873756,64.883484 104.901398,61.883751 106.061043,58.237034 
	C106.842918,55.778286 105.484291,52.638866 105.059349,49.142166 
	C105.007187,48.292248 104.978874,48.104099 104.950554,47.915951 
z"/>
<path fill="#82B4A0" opacity="1.000000" stroke="none" 
	d="
M120.912552,78.492599 
	C119.552521,81.437920 118.059349,84.084328 116.252296,86.879456 
	C115.407669,86.820412 114.876915,86.612663 114.067062,85.974945 
	C113.613823,85.239754 113.356194,85.044937 113.015076,84.960510 
	C111.739929,82.542213 110.464790,80.123917 109.320343,77.236206 
	C108.947647,76.206177 108.444244,75.645561 107.917984,74.795135 
	C108.238663,74.049973 108.582207,73.594620 109.244934,72.994690 
	C110.415154,72.483307 111.266174,72.116501 112.117195,71.749695 
	C117.024330,71.182701 118.166092,75.677261 120.912552,78.492599 
z"/>
<path fill="#F8F1E0" opacity="1.000000" stroke="none" 
	d="
M82.593491,127.002060 
	C83.019333,131.812439 83.095161,136.623734 82.960312,141.429108 
	C82.927666,142.592575 82.199677,143.736542 81.070129,144.716980 
	C80.164383,140.811371 79.979942,137.078232 79.795494,133.345108 
	C79.200844,133.343140 78.606186,133.341156 78.011528,133.339188 
	C78.011528,135.650177 78.386055,138.043701 77.900436,140.247696 
	C77.462738,142.234207 76.082870,144.013123 75.059738,145.425873 
	C75.133972,138.977295 75.266998,132.986420 75.400024,126.995552 
	C77.655373,126.997299 79.910728,126.999054 82.593491,127.002060 
z"/>
<path fill="#F19665" opacity="1.000000" stroke="none" 
	d="
M70.000938,151.999390 
	C69.984642,149.254883 69.968346,146.510391 69.922379,143.303589 
	C69.944511,135.178116 70.008980,127.514984 70.039276,119.851700 
	C70.046944,117.911934 69.474800,115.658531 73.146484,116.339592 
	C73.331985,127.546593 73.055809,138.301834 72.558823,149.282089 
	C72.223038,150.338272 72.108070,151.169434 71.661072,152.000366 
	C70.886337,151.999878 70.443642,151.999634 70.000938,151.999390 
z"/>
<path fill="#A4D0B7" opacity="1.000000" stroke="none" 
	d="
M53.014725,143.174881 
	C53.709362,140.531677 54.601608,137.920334 55.034527,135.234940 
	C55.365791,133.180084 55.116451,131.031662 55.110260,128.212433 
	C55.095161,127.500031 55.069656,127.002190 55.069656,127.002190 
	C55.748501,125.980385 56.427349,124.958580 57.650299,123.910751 
	C58.194401,123.884727 58.586452,123.902931 58.623695,124.318665 
	C58.427750,134.466904 58.194565,144.199387 57.740677,154.052826 
	C57.325748,154.435547 57.131519,154.697327 56.937286,154.959106 
	C56.937286,154.959106 56.989292,154.997757 56.682793,154.925812 
	C55.959427,154.818359 55.542553,154.782837 55.095631,154.309860 
	C54.381958,150.306549 53.698338,146.740723 53.014725,143.174881 
z"/>
<path fill="#A1C9B5" opacity="1.000000" stroke="none" 
	d="
M88.290695,124.899811 
	C89.272736,124.985832 90.254776,125.071838 91.611252,125.556168 
	C92.000496,127.963432 92.015312,129.972382 92.014069,132.411255 
	C92.031883,134.554047 92.065758,136.266891 92.059448,138.431335 
	C92.006195,140.880844 91.900200,142.883499 92.001839,144.875565 
	C92.154541,147.867905 90.868805,149.251053 87.864258,148.488480 
	C88.011429,140.315140 88.151062,132.607468 88.290695,124.899811 
z"/>
<path fill="#FCE5CF" opacity="1.000000" stroke="none" 
	d="
M83.989517,74.020134 
	C82.195496,74.754776 80.429070,75.570297 78.597641,76.195343 
	C77.396301,76.605347 76.104660,76.939583 74.847137,76.962616 
	C70.030533,77.050865 65.205833,77.143814 60.394745,76.959045 
	C55.742203,76.780365 50.441235,78.821213 46.593731,71.825104 
	C48.978115,73.461617 50.188358,74.413261 51.514973,75.157471 
	C52.312538,75.604889 53.277958,75.883026 54.192009,75.963341 
	C55.675915,76.093719 57.180134,76.026161 58.674789,75.994919 
	C63.968575,75.884262 70.127266,77.901085 71.344437,71.701820 
	C76.300804,72.204659 80.208061,72.601059 84.459808,73.220085 
	C84.532707,73.635185 84.261116,73.827660 83.989517,74.020134 
z"/>
<path fill="#3C5370" opacity="1.000000" stroke="none" 
	d="
M88.249290,124.476593 
	C88.151062,132.607468 88.011429,140.315140 87.632584,148.557678 
	C87.393372,149.092575 86.939896,149.263046 86.939896,149.263046 
	C86.617561,147.708786 85.994972,146.149658 86.020042,144.601028 
	C86.234604,131.351425 86.566521,118.103722 86.933624,104.399246 
	C87.346664,104.719818 87.689415,105.496605 88.047585,106.886749 
	C88.097992,107.668152 88.132980,107.836197 88.167976,108.004234 
	C88.388588,108.784943 88.609192,109.565643 88.707588,110.803368 
	C88.350235,111.531609 88.363815,111.789734 88.626122,112.034752 
	C88.548050,113.377007 88.469971,114.719254 88.349091,116.780869 
	C88.354408,117.711418 88.402519,117.922615 88.450630,118.133812 
	C88.369713,120.107002 88.288803,122.080185 88.249290,124.476593 
z"/>
<path fill="#FCE5CF" opacity="1.000000" stroke="none" 
	d="
M94.996338,85.998169 
	C87.665367,85.998390 80.142212,84.966721 73.056946,86.286255 
	C65.832344,87.631752 58.921280,83.993927 51.719276,86.631149 
	C52.111206,87.921257 52.566963,89.421455 52.837944,90.313438 
	C50.979778,90.313438 49.218082,90.313438 47.147781,90.313438 
	C47.612339,89.588089 48.395222,88.365723 49.281509,86.981895 
	C48.598961,86.524086 47.832886,86.010254 47.068352,85.491043 
	C47.287701,85.326866 47.504761,85.030563 47.723408,85.029396 
	C53.054779,85.000771 58.441566,85.487389 63.704788,84.886444 
	C71.459534,84.001045 79.130226,85.435478 86.827797,84.963417 
	C89.356422,84.808357 91.857170,84.198593 94.685257,84.232956 
	C94.998680,85.112160 94.997505,85.555168 94.996338,85.998169 
z"/>
<path fill="#989198" opacity="1.000000" stroke="none" 
	d="
M52.690990,142.914246 
	C53.698338,146.740723 54.381958,150.306549 54.669563,154.391785 
	C52.581924,154.909332 50.890301,154.907471 49.198673,154.905609 
	C49.411415,150.571228 49.624161,146.236862 49.762699,141.466827 
	C49.934219,139.395309 50.179943,137.759460 50.425667,136.123596 
	C50.791580,136.105530 51.157494,136.087448 51.523407,136.069366 
	C51.804691,138.264114 52.085976,140.458878 52.690990,142.914246 
z"/>
<path fill="#404D71" opacity="1.000000" stroke="none" 
	d="
M72.779633,149.057083 
	C73.055809,138.301834 73.331985,127.546593 73.548492,116.362213 
	C73.710243,115.360176 73.931679,114.787277 74.153107,114.214371 
	C74.511627,114.236908 74.870148,114.259445 75.228668,114.281982 
	C75.228668,118.232132 75.228668,122.182281 75.314346,126.563995 
	C75.266998,132.986420 75.133972,138.977295 75.026253,145.808456 
	C75.027084,147.416397 75.002602,148.184021 74.967438,149.007904 
	C74.956757,149.064148 75.048981,149.132034 74.790489,149.211823 
	C73.947876,149.213425 73.363754,149.135254 72.779633,149.057083 
z"/>
<path fill="#BAD5C4" opacity="1.000000" stroke="none" 
	d="
M60.290516,137.945084 
	C61.257393,137.965546 62.224270,137.985992 63.597954,138.453995 
	C64.011765,143.589478 64.018768,148.277390 63.692348,153.053909 
	C62.245144,153.368790 61.131363,153.595062 60.008308,153.365509 
	C60.096195,147.921478 60.193356,142.933273 60.290516,137.945084 
z"/>
<path fill="#3C5370" opacity="1.000000" stroke="none" 
	d="
M60.249214,137.492004 
	C60.193356,142.933273 60.096195,147.921478 59.671535,153.451447 
	C58.883152,153.972778 58.422264,153.952332 57.961380,153.931885 
	C58.194565,144.199387 58.427750,134.466904 59.162998,124.267258 
	C60.018524,123.731674 60.371986,123.663239 60.725449,123.594803 
	C60.648544,124.452660 60.571636,125.310516 60.465263,126.833237 
	C60.505745,127.656990 60.575699,127.815880 60.645649,127.974762 
	C60.499741,130.996155 60.353828,134.017548 60.249214,137.492004 
z"/>
<path fill="#FCE5CF" opacity="1.000000" stroke="none" 
	d="
M107.940849,75.084946 
	C108.444244,75.645561 108.947647,76.206177 109.232491,76.904099 
	C101.313759,77.029083 93.613586,77.016754 85.505951,76.659012 
	C86.388092,75.206512 87.677696,74.099419 88.967300,72.992317 
	C91.466301,73.134102 93.965302,73.275894 96.819778,74.098572 
	C100.763779,74.881287 104.352310,74.983116 107.940849,75.084946 
z"/>
<path fill="#948688" opacity="1.000000" stroke="none" 
	d="
M104.487839,47.945637 
	C104.978874,48.104099 105.007187,48.292248 105.001137,48.763824 
	C88.193810,49.047260 71.420837,49.047260 54.647869,49.047260 
	C54.648026,48.689949 54.648182,48.332634 54.648335,47.975323 
	C71.107262,47.975323 87.566193,47.975323 104.487839,47.945637 
z"/>
<path fill="#98C5B1" opacity="1.000000" stroke="none" 
	d="
M114.073059,127.084335 
	C114.748390,126.720779 115.423721,126.357216 116.471588,126.394287 
	C116.580780,131.448288 116.317444,136.101669 116.054115,140.755035 
	C116.054115,140.755035 116.055016,140.928406 115.744522,140.969727 
	C114.916580,140.774643 114.399139,140.538223 113.901459,139.813751 
	C113.943085,135.544891 113.964958,131.764084 114.018623,127.759537 
	C114.050415,127.535774 114.073059,127.084335 114.073059,127.084335 
z"/>
<path fill="#F49867" opacity="1.000000" stroke="none" 
	d="
M112.271515,71.466377 
	C111.266174,72.116501 110.415154,72.483307 109.026825,72.949127 
	C108.489517,73.048141 108.049080,72.981522 108.049080,72.981522 
	C107.672775,71.566757 107.296478,70.151985 106.904701,68.369415 
	C112.734062,70.266815 112.496048,64.976646 114.580566,62.076752 
	C117.651581,66.069908 113.301689,68.146172 112.271515,71.466377 
z"/>
<path fill="#DED3C9" opacity="1.000000" stroke="none" 
	d="
M113.597961,127.073471 
	C114.073059,127.084335 114.050415,127.535774 113.561417,127.748337 
	C110.303741,128.000763 107.535065,128.040634 104.601456,128.159698 
	C104.203354,128.353546 103.965874,128.363312 103.233566,128.189117 
	C98.443115,127.383240 94.551079,127.785210 92.030128,131.981339 
	C92.015312,129.972382 92.000496,127.963432 91.980820,125.529442 
	C92.330208,124.594955 92.684456,124.085503 92.344917,124.573807 
	C94.936829,125.547714 96.891609,126.800751 98.923363,126.941315 
	C103.636765,127.267403 108.387352,127.056076 113.597961,127.073471 
z"/>
<path fill="#F8E2CD" opacity="1.000000" stroke="none" 
	d="
M80.977043,96.948868 
	C91.929924,96.948868 102.882797,96.948868 113.835678,96.948868 
	C113.837715,97.295876 113.839745,97.642876 113.841774,97.989883 
	C103.208740,97.989883 92.575699,97.989883 81.469505,97.727905 
	C80.989914,97.293571 80.983475,97.121223 80.977043,96.948868 
z"/>
<path fill="#4E6178" opacity="1.000000" stroke="none" 
	d="
M116.337151,140.803497 
	C116.317444,136.101669 116.580780,131.448288 116.767120,126.333458 
	C118.617226,123.438896 118.980286,124.757980 118.943375,126.835129 
	C118.875519,130.654678 118.762711,134.473434 118.731689,138.780304 
	C118.069901,139.796051 117.345047,140.324020 116.337151,140.803497 
z"/>
<path fill="#2F4C70" opacity="1.000000" stroke="none" 
	d="
M44.870186,141.963364 
	C44.928852,141.561264 44.987522,141.159164 45.063160,140.452209 
	C45.673428,140.234146 46.266724,140.320938 47.026939,140.668854 
	C46.956474,145.922806 46.719090,150.915604 45.838509,155.757507 
	C45.086941,151.058868 44.978561,146.511124 44.870186,141.963364 
z"/>
<path fill="#2F4C70" opacity="1.000000" stroke="none" 
	d="
M64.025772,152.965317 
	C64.018768,148.277390 64.011765,143.589478 63.960342,138.435425 
	C64.608360,138.125366 65.870773,138.209976 65.900772,138.449142 
	C66.096024,140.005798 66.023651,141.596024 66.122711,143.592361 
	C66.118614,146.685455 66.030663,149.361465 65.688820,152.527191 
	C65.434921,153.016922 65.008766,153.209198 64.762497,153.150345 
	C64.352737,153.049438 64.189255,153.007385 64.025772,152.965317 
z"/>
<path fill="#FCE5CF" opacity="1.000000" stroke="none" 
	d="
M88.625648,108.000214 
	C88.132980,107.836197 88.097992,107.668152 88.115173,107.248100 
	C96.762169,106.996086 105.356995,106.996086 113.951813,106.996086 
	C113.951515,107.329453 113.951210,107.662819 113.950912,107.996185 
	C105.661713,107.996185 97.372520,107.996185 88.625648,108.000214 
z"/>
<path fill="#FDE9D6" opacity="1.000000" stroke="none" 
	d="
M89.136024,116.960121 
	C97.360832,116.960121 105.585632,116.960121 113.810440,116.960121 
	C113.814255,117.311241 113.818069,117.662361 113.821884,118.013481 
	C105.901505,118.013481 97.981125,118.013481 89.577530,117.756920 
	C89.108223,117.320282 89.122124,117.140198 89.136024,116.960121 
z"/>
<path fill="#F8E2CD" opacity="1.000000" stroke="none" 
	d="
M69.960426,98.027573 
	C62.364239,98.027573 54.768047,98.027573 47.171860,98.027573 
	C47.168415,97.683678 47.164970,97.339775 47.161526,96.995880 
	C55.129234,96.995880 63.096943,96.995880 71.364662,97.241951 
	C71.096588,97.667870 70.528511,97.847725 69.960426,98.027573 
z"/>
<path fill="#EAE7D8" opacity="1.000000" stroke="none" 
	d="
M69.928574,98.381424 
	C70.528511,97.847725 71.096588,97.667870 71.833405,97.235558 
	C74.695686,96.983803 77.389229,96.984505 80.529907,96.967041 
	C80.983475,97.121223 80.989914,97.293571 81.001244,97.724396 
	C79.035416,97.982857 77.064682,97.982857 74.904816,97.982857 
	C74.834732,99.241554 74.776909,100.279968 74.694542,101.759254 
	C73.658821,100.855553 72.964966,100.250130 72.057335,99.458183 
	C71.245369,100.744118 70.482086,101.952957 69.718803,103.161789 
	C69.460983,103.097038 69.203171,103.032280 68.945351,102.967529 
	C69.262474,101.556778 69.579590,100.146019 69.928574,98.381424 
z"/>
<path fill="#ECE2CE" opacity="1.000000" stroke="none" 
	d="
M83.438171,106.979210 
	C83.913467,107.146179 83.930435,107.328262 83.897026,107.780533 
	C80.877777,108.031158 77.890663,107.796944 74.944702,108.047157 
	C71.382828,108.349693 67.855782,109.062431 63.856789,108.958084 
	C65.777382,108.307831 67.669937,107.221275 69.624237,107.095734 
	C74.059967,106.810776 78.526077,106.998650 83.438171,106.979210 
z"/>
<path fill="#FDF2DF" opacity="1.000000" stroke="none" 
	d="
M107.784393,72.988228 
	C108.049080,72.981522 108.489517,73.048141 108.707634,73.093704 
	C108.582207,73.594620 108.238663,74.049973 107.917984,74.795135 
	C104.352310,74.983116 100.763779,74.881287 97.100929,74.386513 
	C97.026619,73.993568 97.486755,73.995277 97.815552,74.166458 
	C98.423317,74.226738 98.702278,74.115845 98.981239,74.004944 
	C98.981239,74.004944 98.996941,73.997475 99.430511,73.997559 
	C102.239471,73.666527 104.614853,73.335419 106.990234,73.004303 
	C107.166725,73.001183 107.343208,72.998055 107.784393,72.988228 
z"/>
<path fill="#FCE5CF" opacity="1.000000" stroke="none" 
	d="
M112.547806,84.976135 
	C113.356194,85.044937 113.613823,85.239754 113.849556,85.784760 
	C108.585793,86.015968 103.260429,86.007393 97.465302,85.745338 
	C96.994858,85.322472 96.994171,85.153084 96.993492,84.983704 
	C102.022507,84.986389 107.051529,84.989075 112.547806,84.976135 
z"/>
<path fill="#FBF4E2" opacity="1.000000" stroke="none" 
	d="
M54.666252,127.001320 
	C55.069656,127.002190 55.095161,127.500031 55.082829,127.748909 
	C52.454708,127.997787 49.838921,127.997787 46.942478,127.997787 
	C47.637573,126.061142 48.241554,124.378365 48.845531,122.695587 
	C49.111301,122.717842 49.377071,122.740097 49.642841,122.762352 
	C49.741802,124.045418 49.840763,125.328484 49.969719,127.000450 
	C51.365070,127.000450 52.813961,127.000450 54.666252,127.001320 
z"/>
<path fill="#F8F1E0" opacity="1.000000" stroke="none" 
	d="
M54.392113,109.366966 
	C57.074364,107.958801 59.840961,106.873840 62.607563,105.788872 
	C62.755840,106.197701 62.904118,106.606529 63.052395,107.015358 
	C60.193748,107.906960 57.335106,108.798561 54.392113,109.366966 
z"/>
<path fill="#FDF2DF" opacity="1.000000" stroke="none" 
	d="
M88.574135,72.992783 
	C87.677696,74.099419 86.388092,75.206512 85.035629,76.664078 
	C84.499161,77.278114 84.025551,77.541672 83.278816,77.903214 
	C83.005692,78.001190 82.953278,77.951561 82.953278,77.951561 
	C83.207619,76.850845 83.461967,75.750122 83.852913,74.334770 
	C84.261116,73.827660 84.532707,73.635185 84.919983,73.217667 
	C86.084099,72.992828 87.132530,72.993034 88.574135,72.992783 
z"/>
<path fill="#F8F1E0" opacity="1.000000" stroke="none" 
	d="
M49.477081,118.074516 
	C48.510490,117.973091 47.863438,117.918549 47.216385,117.863998 
	C47.204678,117.702446 47.192966,117.540886 47.181259,117.379326 
	C48.886501,117.379326 50.591740,117.379326 52.812210,117.379326 
	C52.284531,118.638268 51.849842,119.675362 51.326401,120.924194 
	C50.660278,119.703751 50.228451,118.912575 49.477081,118.074516 
z"/>
<path fill="#EAE7D8" opacity="1.000000" stroke="none" 
	d="
M80.686096,99.416519 
	C80.640305,101.289268 80.285423,103.251610 79.930550,105.213959 
	C79.496529,105.092545 79.062515,104.971130 78.628494,104.849716 
	C79.211342,103.068520 79.794182,101.287315 80.686096,99.416519 
z"/>
<path fill="#FCE5CF" opacity="1.000000" stroke="none" 
	d="
M106.576874,73.004715 
	C104.614853,73.335419 102.239471,73.666527 99.435333,73.990334 
	C101.392220,73.657059 103.777870,73.331085 106.576874,73.004715 
z"/>
<path fill="#FDF2DF" opacity="1.000000" stroke="none" 
	d="
M77.748299,83.572968 
	C77.801949,82.896675 78.143227,82.102844 78.484505,81.309013 
	C78.911415,81.557167 79.338326,81.805313 79.765236,82.053467 
	C79.188805,82.520790 78.612366,82.988113 77.748299,83.572968 
z"/>
<path fill="#FDF2DF" opacity="1.000000" stroke="none" 
	d="
M87.939117,83.431198 
	C88.507774,82.867767 89.355484,82.453667 90.203201,82.039566 
	C90.310051,82.483208 90.416908,82.926857 90.523758,83.370506 
	C89.755226,83.440514 88.986702,83.510521 87.939117,83.431198 
z"/>
<path fill="#FDF2DF" opacity="1.000000" stroke="none" 
	d="
M83.034187,78.023346 
	C82.726044,78.688881 82.389404,79.332268 82.052765,79.975655 
	C81.527054,79.692635 81.001343,79.409615 80.475632,79.126595 
	C81.077896,78.748459 81.680161,78.370331 82.617851,77.971878 
	C82.953278,77.951561 83.005692,78.001190 83.034187,78.023346 
z"/>
<path fill="#FDF2DF" opacity="1.000000" stroke="none" 
	d="
M57.119049,93.966324 
	C57.275105,93.511940 57.708351,93.047264 58.141602,92.582588 
	C58.310181,92.786064 58.478760,92.989540 58.647335,93.193016 
	C58.230305,93.447357 57.813274,93.701698 57.119049,93.966324 
z"/>
<path fill="#F8F1E0" opacity="1.000000" stroke="none" 
	d="
M78.045532,117.286659 
	C78.836388,117.112160 79.431320,117.112160 80.026245,117.112160 
	C80.015038,117.332527 80.003830,117.552895 79.992622,117.773262 
	C79.278282,117.669228 78.563950,117.565193 78.045532,117.286659 
z"/>
<path fill="#F8F1E0" opacity="1.000000" stroke="none" 
	d="
M53.929810,113.470825 
	C53.888943,114.184784 53.802528,114.632347 53.716114,115.079918 
	C53.542042,115.077042 53.367970,115.074165 53.193897,115.071297 
	C53.193897,114.422523 53.179989,113.773125 53.209507,113.125702 
	C53.213734,113.033012 53.450134,112.860825 53.539524,112.883240 
	C53.672894,112.916672 53.771095,113.090393 53.929810,113.470825 
z"/>
<path fill="#FDF2DF" opacity="1.000000" stroke="none" 
	d="
M96.825508,84.740379 
	C96.994171,85.153084 96.994858,85.322472 96.997772,85.745926 
	C96.554771,86.000191 96.109550,86.000381 95.330322,85.999374 
	C94.997505,85.555168 94.998680,85.112160 94.995483,84.337006 
	C95.546585,84.168922 96.102051,84.332985 96.825508,84.740379 
z"/>
<path fill="#BAD5C4" opacity="1.000000" stroke="none" 
	d="
M60.650562,123.365265 
	C60.371986,123.663239 60.018524,123.731674 59.125755,123.851524 
	C58.586452,123.902931 58.194401,123.884727 57.999786,123.851929 
	C58.728676,123.591339 59.652176,123.363533 60.650562,123.365265 
z"/>
<path fill="#FDF2DF" opacity="1.000000" stroke="none" 
	d="
M63.712414,90.607368 
	C63.843769,90.439674 64.071198,90.414391 64.298622,90.389114 
	C64.135246,90.509338 63.971867,90.629562 63.712414,90.607368 
z"/>
<path fill="#F8F1E0" opacity="1.000000" stroke="none" 
	d="
M57.535652,105.553497 
	C57.476212,105.589951 57.595089,105.517052 57.535652,105.553497 
z"/>
<path fill="#A1C9B5" opacity="1.000000" stroke="none" 
	d="
M88.759903,111.893539 
	C88.363815,111.789734 88.350235,111.531609 88.754761,111.126862 
	C89.027779,111.250938 89.017624,111.503929 88.759903,111.893539 
z"/>
<path fill="#FCE5CF" opacity="1.000000" stroke="none" 
	d="
M98.722733,73.993523 
	C98.702278,74.115845 98.423317,74.226738 98.045624,74.166550 
	C98.119347,73.991005 98.291786,73.986549 98.722733,73.993523 
z"/>
<path fill="#BAD5C4" opacity="1.000000" stroke="none" 
	d="
M60.753002,127.877716 
	C60.575699,127.815880 60.505745,127.656990 60.540413,127.260094 
	C60.903069,127.216278 60.974846,127.469139 60.753002,127.877716 
z"/>
<path fill="#A1C9B5" opacity="1.000000" stroke="none" 
	d="
M88.968575,116.908752 
	C89.122124,117.140198 89.108223,117.320282 89.117950,117.770523 
	C89.141571,118.040680 88.803558,118.144402 88.627090,118.139107 
	C88.402519,117.922615 88.354408,117.711418 88.378639,117.184158 
	C88.450989,116.868103 88.801125,116.857391 88.968575,116.908752 
z"/>
<path fill="#F18C61" opacity="1.000000" stroke="none" 
	d="
M113.881699,140.301819 
	C114.399139,140.538223 114.916580,140.774643 115.727097,141.054626 
	C111.807213,147.697250 105.702682,150.014740 98.001129,150.158615 
	C91.618706,150.277847 85.271164,151.788834 78.886459,152.483658 
	C76.136086,152.782959 73.330872,152.578400 70.275757,152.301056 
	C70.443642,151.999634 70.886337,151.999878 71.927078,151.902405 
	C73.366394,150.913818 74.207687,150.022919 75.048981,149.132034 
	C75.048981,149.132034 74.956757,149.064148 75.277969,149.153503 
	C77.509598,151.266724 79.313293,151.654709 80.911713,148.896286 
	C82.738586,149.157043 84.565460,149.417801 86.666115,149.470795 
	C86.939896,149.263046 87.393372,149.092575 87.625046,149.023376 
	C90.868805,149.251053 92.154541,147.867905 92.001839,144.875565 
	C91.900200,142.883499 92.006195,140.880844 92.385712,138.292343 
	C93.880157,137.510498 95.008148,137.319229 96.121552,137.572952 
	C96.093071,140.440704 96.132797,142.865280 96.050323,145.285690 
	C95.966499,147.745758 96.944969,148.158829 99.256470,146.820465 
	C100.734192,146.455460 101.877426,146.210144 103.431015,145.980865 
	C104.360344,144.317383 104.879333,142.637833 105.788681,140.957245 
	C108.746590,140.738052 111.314148,140.519928 113.881699,140.301819 
z"/>
<path fill="#A4D0B7" opacity="1.000000" stroke="none" 
	d="
M44.464771,141.989777 
	C44.978561,146.511124 45.086941,151.058868 45.424747,155.965485 
	C44.466751,156.049957 42.247753,155.780853 42.246330,155.500458 
	C42.224262,151.159027 42.473724,146.815125 42.745796,142.477158 
	C42.757111,142.296768 43.602531,142.168671 44.464771,141.989777 
z"/>
<path fill="#E78C67" opacity="1.000000" stroke="none" 
	d="
M63.692348,153.053909 
	C64.189255,153.007385 64.352737,153.049438 64.765404,153.365143 
	C65.014587,153.638809 65.030998,154.068298 65.030998,154.068298 
	C62.621315,154.382523 60.211636,154.696732 57.369621,154.985031 
	C57.131519,154.697327 57.325748,154.435547 57.740677,154.052826 
	C58.422264,153.952332 58.883152,153.972778 59.680809,153.907288 
	C61.131363,153.595062 62.245144,153.368790 63.692348,153.053909 
z"/>
<path fill="#E78C67" opacity="1.000000" stroke="none" 
	d="
M49.056667,155.179596 
	C50.890301,154.907471 52.581924,154.909332 54.699615,154.829254 
	C55.542553,154.782837 55.959427,154.818359 56.688923,154.894012 
	C54.255501,155.420944 51.509453,155.907761 48.763405,156.394577 
	C48.753185,156.234467 48.715199,156.069809 48.740433,155.915497 
	C48.766476,155.756287 48.854023,155.607132 49.056667,155.179596 
z"/>
<path fill="#F18C61" opacity="1.000000" stroke="none" 
	d="
M65.369675,154.054443 
	C65.030998,154.068298 65.014587,153.638809 65.011673,153.424011 
	C65.008766,153.209198 65.434921,153.016922 65.664841,152.973038 
	C66.618279,152.991196 67.341797,153.053253 68.065323,153.115295 
	C68.071716,153.312012 68.078110,153.508713 68.084503,153.705429 
	C67.292450,153.817154 66.500397,153.928864 65.369675,154.054443 
z"/>
<path fill="#81B59F" opacity="1.000000" stroke="none" 
	d="
M174.113937,75.665009 
	C174.188538,72.493126 174.330856,69.754959 174.545441,65.626541 
	C181.755005,81.785477 181.958511,84.246796 176.402054,86.682060 
	C175.650375,83.099220 174.916016,79.598976 174.113937,75.665009 
z"/>
<path fill="#EDBA9E" opacity="1.000000" stroke="none" 
	d="
M157.086838,29.069782 
	C157.660660,30.196611 158.182480,31.729710 158.642288,33.642883 
	C158.065125,32.507328 157.549988,30.991690 157.086838,29.069782 
z"/>
<path fill="#EDBA9E" opacity="1.000000" stroke="none" 
	d="
M160.006760,35.643555 
	C160.146271,35.358936 160.321381,35.297863 160.766418,35.169609 
	C160.915314,35.526001 160.794281,35.949577 160.673233,36.373154 
	C160.462936,36.204472 160.252640,36.035789 160.006760,35.643555 
z"/>
<path fill="#EDBA9E" opacity="1.000000" stroke="none" 
	d="
M155.538666,34.552910 
	C155.480453,34.587967 155.596878,34.517857 155.538666,34.552910 
z"/>
<path fill="#595A76" opacity="1.000000" stroke="none" 
	d="
M145.964798,37.970127 
	C146.213852,37.765415 146.462921,37.560699 146.711975,37.355984 
	C146.746033,37.588463 146.780075,37.820942 146.492050,38.101761 
	C146.169968,38.150093 145.964798,37.970127 145.964798,37.970127 
z"/>
<path fill="#595A76" opacity="1.000000" stroke="none" 
	d="
M146.274292,38.238029 
	C146.132675,38.506165 145.886734,38.686363 145.640778,38.866558 
	C145.597473,38.623432 145.554169,38.380310 145.737839,38.053658 
	C145.964798,37.970127 146.169968,38.150093 146.274292,38.238029 
z"/>
<path fill="#FEFEFE" opacity="1.000000" stroke="none" 
	d="
M155.029327,87.973541 
	C155.185135,88.134796 155.323242,88.312134 155.461349,88.489471 
	C155.344299,88.445946 155.227249,88.402420 155.044937,88.191925 
	C154.979675,88.024956 155.011627,87.989624 155.029327,87.973541 
z"/>
<path fill="#989198" opacity="1.000000" stroke="none" 
	d="
M80.932922,148.518524 
	C79.313293,151.654709 77.509598,151.266724 75.288651,149.097260 
	C75.002602,148.184021 75.027084,147.416397 75.085052,146.266174 
	C76.082870,144.013123 77.462738,142.234207 77.900436,140.247696 
	C78.386055,138.043701 78.011528,135.650177 78.011528,133.339188 
	C78.606186,133.341156 79.200844,133.343140 79.795494,133.345108 
	C79.979942,137.078232 80.164383,140.811371 80.668427,144.829483 
	C80.976723,146.123230 80.965424,147.132004 80.932922,148.518524 
z"/>
<path fill="#E78C67" opacity="1.000000" stroke="none" 
	d="
M74.790489,149.211823 
	C74.207687,150.022919 73.366394,150.913818 72.259109,151.902649 
	C72.108070,151.169434 72.223038,150.338272 72.558823,149.282089 
	C73.363754,149.135254 73.947876,149.213425 74.790489,149.211823 
z"/>
<path fill="#FBF4E2" opacity="1.000000" stroke="none" 
	d="
M96.136139,137.127945 
	C95.008148,137.319229 93.880157,137.510498 92.425903,137.840759 
	C92.065758,136.266891 92.031883,134.554047 92.014069,132.411255 
	C94.551079,127.785210 98.443115,127.383240 103.092041,128.540268 
	C103.291580,129.967697 103.142136,130.964874 102.597496,131.994614 
	C101.495956,133.687576 100.715065,135.321213 100.105904,137.016541 
	C99.582481,138.473282 99.255203,140.000504 98.765114,141.071045 
	C98.430336,139.043167 99.805000,136.255371 96.136139,137.127945 
z"/>
<path fill="#F5EFDF" opacity="1.000000" stroke="none" 
	d="
M113.901459,139.813751 
	C111.314148,140.519928 108.746590,140.738052 105.721313,140.498749 
	C105.097847,136.054382 104.932114,132.067429 104.766380,128.080490 
	C107.535065,128.040634 110.303741,128.000763 113.529633,127.972092 
	C113.964958,131.764084 113.943085,135.544891 113.901459,139.813751 
z"/>
<path fill="#595A76" opacity="1.000000" stroke="none" 
	d="
M104.601456,128.159698 
	C104.932114,132.067429 105.097847,136.054382 105.330948,140.499817 
	C104.879333,142.637833 104.360344,144.317383 103.444786,145.519836 
	C103.029709,140.682526 103.011200,136.322281 102.992691,131.962051 
	C103.142136,130.964874 103.291580,129.967697 103.582550,128.619370 
	C103.965874,128.363312 104.203354,128.353546 104.601456,128.159698 
z"/>
<path fill="#F6A171" opacity="1.000000" stroke="none" 
	d="
M102.597504,131.994614 
	C103.011200,136.322281 103.029709,140.682526 103.034439,145.503784 
	C101.877426,146.210144 100.734192,146.455460 99.263153,146.426300 
	C98.903969,144.600082 98.872581,143.048325 98.841187,141.496567 
	C99.255203,140.000504 99.582481,138.473282 100.105904,137.016541 
	C100.715065,135.321213 101.495956,133.687576 102.597504,131.994614 
z"/>
<path fill="#8D6966" opacity="1.000000" stroke="none" 
	d="
M98.765121,141.071045 
	C98.872581,143.048325 98.903969,144.600082 98.928673,146.545990 
	C96.944969,148.158829 95.966499,147.745758 96.050323,145.285690 
	C96.132797,142.865280 96.093071,140.440704 96.121552,137.572952 
	C99.805000,136.255371 98.430336,139.043167 98.765121,141.071045 
z"/>
</svg>