<svg version="1.1" id="Layer_1" xmlns="http://www.w3.org/2000/svg" xmlns:xlink="http://www.w3.org/1999/xlink" x="0px" y="0px"
	 width="100%" viewBox="0 0 612 612" enable-background="new 0 0 612 612" xml:space="preserve">
<path fill="#FEFFFF" opacity="1.000000" stroke="none" 
	d="
M399.000000,613.000000 
	C266.000031,613.000000 133.500046,613.000000 1.000053,613.000000 
	C1.000036,409.000061 1.000036,205.000122 1.000018,1.000135 
	C204.999893,1.000090 408.999786,1.000090 612.999756,1.000045 
	C612.999878,204.999863 612.999878,408.999725 612.999939,612.999756 
	C541.833313,613.000000 470.666656,613.000000 399.000000,613.000000 
M407.305450,378.411346 
	C406.763702,366.487061 400.307129,358.733368 389.587372,357.101257 
	C373.961090,354.722168 358.337708,352.323853 342.711884,349.941803 
	C317.247375,346.059937 292.328461,341.274567 267.951721,331.561249 
	C231.433578,317.010040 194.778519,318.074371 160.761505,341.178284 
	C149.091385,349.104462 136.922424,356.296112 124.595581,364.066559 
	C140.863144,395.781464 156.980103,427.202759 173.204163,458.832886 
	C180.227829,454.886902 186.913239,451.771362 192.871887,447.614136 
	C199.644882,442.888763 206.244781,442.249908 214.301239,443.862030 
	C254.741547,451.954376 295.372559,459.099030 335.788269,467.306732 
	C354.912720,471.190521 373.077606,469.949158 390.954651,462.288147 
	C433.911102,443.879578 476.914124,425.579803 519.865112,407.158569 
	C522.425842,406.060303 524.930298,404.559601 527.054321,402.764954 
	C533.495605,397.322388 535.522583,387.599579 532.087524,379.989380 
	C528.860168,372.839355 522.097595,369.465637 513.011841,370.824341 
	C508.918427,371.436493 504.695801,372.085938 500.897186,373.622040 
	C476.709778,383.403046 452.530304,393.216919 428.551361,403.493958 
	C418.945648,407.610901 409.339783,411.178070 398.815338,411.050568 
	C375.682678,410.770325 352.538940,410.595978 329.427582,409.677734 
	C316.307465,409.156433 303.242035,407.253723 290.152527,405.967529 
	C286.697601,405.628052 284.308319,403.761871 284.417023,400.281219 
	C284.532898,396.572937 286.956604,394.672028 290.803436,394.907135 
	C291.800781,394.968079 292.802032,394.962341 293.800659,395.006165 
	C324.086609,396.335571 354.369263,397.747192 384.659851,398.960632 
	C397.299316,399.466949 405.837921,391.839752 407.305450,378.411346 
M83.158798,389.732361 
	C79.670845,392.698883 79.451355,396.157593 81.597961,399.986938 
	C95.826935,425.370087 110.055664,450.753418 124.276428,476.141174 
	C126.650452,480.379425 130.491257,481.571899 134.466873,479.571716 
	C141.984634,475.789490 149.167191,471.341034 156.834030,466.972870 
	C140.710129,435.549255 124.827225,404.595337 108.813774,373.386993 
	C100.027634,378.954315 91.880287,384.116852 83.158798,389.732361 
M431.609375,150.126755 
	C429.514252,150.657028 427.356934,151.021744 425.346497,151.777359 
	C424.064148,152.259338 422.113983,153.251923 422.045715,154.137558 
	C421.944672,155.448151 422.937469,157.223251 424.017792,158.167847 
	C426.488007,160.327728 429.293579,162.104034 432.166504,164.183441 
	C401.012512,214.175522 355.835693,245.092697 300.831635,263.578796 
	C304.809753,264.127625 308.434540,263.747772 312.019196,263.133881 
	C366.323486,253.834290 410.982117,228.274429 444.721497,184.332901 
	C446.633728,181.842392 448.251984,177.806503 450.592957,177.322266 
	C453.119720,176.799622 456.288544,179.728058 459.273438,180.907776 
	C460.523285,181.401749 462.663849,181.891235 463.256805,181.277954 
	C464.176514,180.326782 464.659271,178.322372 464.386841,176.951370 
	C462.573761,167.826752 460.421906,158.769867 458.567047,149.652939 
	C457.684387,145.314636 455.376404,144.402557 451.346344,145.485138 
	C445.086578,147.166672 438.737976,148.517624 431.609375,150.126755 
M353.398621,220.985367 
	C368.927979,209.116165 367.053467,188.411072 349.484283,180.099274 
	C343.187286,177.120224 336.420288,175.148788 329.936615,172.546143 
	C323.336426,169.896729 321.295990,166.685898 322.830627,161.921768 
	C324.446838,156.904404 330.171692,154.043533 336.003143,156.261948 
	C338.877075,157.355270 341.186859,160.140182 343.498993,162.416580 
	C344.718170,163.616928 345.393860,165.369308 346.354858,166.937622 
	C351.354156,165.058990 356.000824,163.312866 360.851471,161.490112 
	C357.319702,149.876450 349.201385,144.259949 337.756989,142.527298 
	C337.485046,139.428040 337.232056,136.544678 336.941711,133.235733 
	C333.370361,133.473114 329.494141,132.649033 327.407013,134.212814 
	C325.746826,135.456741 326.272827,139.618454 325.814819,142.571320 
	C318.532318,144.041489 311.823822,146.315765 307.527863,152.818497 
	C298.254120,166.855820 303.814789,182.594086 320.371063,188.941727 
	C326.272156,191.204178 332.286316,193.171143 338.194183,195.416779 
	C342.366486,197.002716 344.813324,199.892624 343.997406,204.656677 
	C343.214050,209.230591 340.152222,211.430588 335.813995,212.202347 
	C326.633118,213.835648 322.166046,211.080460 316.182739,199.866135 
	C311.013123,201.107483 305.751343,202.370956 300.213318,203.700760 
	C303.532532,217.728516 312.574188,224.728836 326.525879,226.494110 
	C326.525879,230.465439 326.525879,234.057373 326.525879,237.784149 
	C330.338470,237.784149 333.611420,237.784149 337.410767,237.784149 
	C337.410767,233.945679 337.410767,230.345184 337.410767,227.387543 
	C343.000397,225.226959 347.911743,223.328568 353.398621,220.985367 
M433.871429,309.425537 
	C433.881134,311.090790 433.982635,312.761566 433.882996,314.420227 
	C433.609955,318.964142 435.891083,321.485809 440.227753,321.659515 
	C446.374634,321.905792 452.546906,321.868011 458.694702,321.617584 
	C462.768433,321.451599 465.012756,319.113342 465.011444,314.814087 
	C465.001251,281.673553 465.063110,248.532928 464.993073,215.392578 
	C464.982178,210.241806 462.801819,208.240082 457.586456,208.034393 
	C453.428864,207.870438 449.260895,207.926834 445.097931,207.952011 
	C434.889343,208.013733 433.857391,209.027695 433.856293,219.016800 
	C433.853027,248.827057 433.865204,278.637329 433.871429,309.425537 
M389.213928,278.500000 
	C389.207428,289.663177 389.152832,300.826630 389.210571,311.989471 
	C389.252563,320.111877 391.063507,321.863770 399.306519,321.972076 
	C403.637482,322.029022 407.972931,322.068665 412.301117,321.940430 
	C418.630585,321.752991 420.604187,319.795929 420.817902,313.439148 
	C420.963348,309.112091 420.852753,304.776337 420.851959,300.444489 
	C420.849243,285.449280 420.920227,270.453491 420.809113,255.459045 
	C420.751984,247.752426 419.016479,246.171722 411.285492,246.095154 
	C406.787628,246.050598 402.287170,246.020981 397.790894,246.120178 
	C391.372162,246.261780 389.418365,248.107513 389.287384,254.508041 
	C389.130585,262.169312 389.227234,269.835785 389.213928,278.500000 
M358.580475,321.924713 
	C362.241699,321.898529 365.912842,322.031403 369.561584,321.804626 
	C373.806000,321.540771 376.218506,319.447479 376.192078,314.802795 
	C376.110626,300.489319 376.210205,286.174896 376.196045,271.860870 
	C376.191589,267.354401 373.767670,265.180084 369.329163,265.163055 
	C364.002991,265.142578 358.675629,265.070801 353.350861,265.153931 
	C347.070190,265.251984 344.872467,267.385315 344.863647,273.609589 
	C344.844727,286.925018 344.914673,300.241058 345.041412,313.556000 
	C345.098206,319.525116 346.818695,321.306458 352.632050,321.791199 
	C354.287415,321.929199 355.958649,321.876678 358.580475,321.924713 
M325.894623,322.996796 
	C329.765045,322.445099 331.118317,319.929688 331.115723,316.334320 
	C331.108490,306.370728 331.104797,296.407135 331.111816,286.443542 
	C331.115143,281.761078 328.701538,279.304871 324.116943,279.206085 
	C318.308716,279.080933 312.486023,278.990479 306.687500,279.264191 
	C302.518890,279.460938 299.945404,281.746399 299.949188,286.269043 
	C299.957581,296.232330 299.892883,306.195923 299.954285,316.158783 
	C299.982666,320.763885 302.308075,323.217041 307.070587,323.166138 
	C313.047577,323.102234 319.025299,323.107544 325.894623,322.996796 
M472.652405,369.042969 
	C480.390015,366.329132 488.127655,363.615295 496.237671,360.770844 
	C490.787933,355.987183 484.746216,354.642273 478.601532,356.496796 
	C460.623962,361.922516 442.781036,367.798492 424.941711,373.669159 
	C423.806610,374.042725 422.483978,375.827789 422.394989,377.040375 
	C422.083344,381.286499 422.274170,385.569519 422.274170,389.704926 
	C438.819794,382.887238 455.362701,376.070679 472.652405,369.042969 
M439.844147,343.560730 
	C429.582733,345.936951 419.321320,348.313202 408.545593,350.808533 
	C411.778992,354.701965 414.300262,357.737915 416.378113,360.239868 
	C432.686798,355.564911 448.629211,350.994934 464.571655,346.424957 
	C464.653992,346.002899 464.736328,345.580811 464.818665,345.158752 
	C461.342285,343.864380 457.911102,341.677979 454.378174,341.498901 
	C449.845551,341.269104 445.231140,342.653168 439.844147,343.560730 
z"/>
<path fill="#1E3346" opacity="1.000000" stroke="none" 
	d="
M407.276947,378.859985 
	C405.837921,391.839752 397.299316,399.466949 384.659851,398.960632 
	C354.369263,397.747192 324.086609,396.335571 293.800659,395.006165 
	C292.802032,394.962341 291.800781,394.968079 290.803436,394.907135 
	C286.956604,394.672028 284.532898,396.572937 284.417023,400.281219 
	C284.308319,403.761871 286.697601,405.628052 290.152527,405.967529 
	C303.242035,407.253723 316.307465,409.156433 329.427582,409.677734 
	C352.538940,410.595978 375.682678,410.770325 398.815338,411.050568 
	C409.339783,411.178070 418.945648,407.610901 428.551361,403.493958 
	C452.530304,393.216919 476.709778,383.403046 500.897186,373.622040 
	C504.695801,372.085938 508.918427,371.436493 513.011841,370.824341 
	C522.097595,369.465637 528.860168,372.839355 532.087524,379.989380 
	C535.522583,387.599579 533.495605,397.322388 527.054321,402.764954 
	C524.930298,404.559601 522.425842,406.060303 519.865112,407.158569 
	C476.914124,425.579803 433.911102,443.879578 390.954651,462.288147 
	C373.077606,469.949158 354.912720,471.190521 335.788269,467.306732 
	C295.372559,459.099030 254.741547,451.954376 214.301239,443.862030 
	C206.244781,442.249908 199.644882,442.888763 192.871887,447.614136 
	C186.913239,451.771362 180.227829,454.886902 173.204163,458.832886 
	C156.980103,427.202759 140.863144,395.781464 124.595581,364.066559 
	C136.922424,356.296112 149.091385,349.104462 160.761505,341.178284 
	C194.778519,318.074371 231.433578,317.010040 267.951721,331.561249 
	C292.328461,341.274567 317.247375,346.059937 342.711884,349.941803 
	C358.337708,352.323853 373.961090,354.722168 389.587372,357.101257 
	C400.307129,358.733368 406.763702,366.487061 407.276947,378.859985 
z"/>
<path fill="#1F3546" opacity="1.000000" stroke="none" 
	d="
M83.445862,389.505859 
	C91.880287,384.116852 100.027634,378.954315 108.813774,373.386993 
	C124.827225,404.595337 140.710129,435.549255 156.834030,466.972870 
	C149.167191,471.341034 141.984634,475.789490 134.466873,479.571716 
	C130.491257,481.571899 126.650452,480.379425 124.276428,476.141174 
	C110.055664,450.753418 95.826935,425.370087 81.597961,399.986938 
	C79.451355,396.157593 79.670845,392.698883 83.445862,389.505859 
z"/>
<path fill="#223747" opacity="1.000000" stroke="none" 
	d="
M432.018188,150.067734 
	C438.737976,148.517624 445.086578,147.166672 451.346344,145.485138 
	C455.376404,144.402557 457.684387,145.314636 458.567047,149.652939 
	C460.421906,158.769867 462.573761,167.826752 464.386841,176.951370 
	C464.659271,178.322372 464.176514,180.326782 463.256805,181.277954 
	C462.663849,181.891235 460.523285,181.401749 459.273438,180.907776 
	C456.288544,179.728058 453.119720,176.799622 450.592957,177.322266 
	C448.251984,177.806503 446.633728,181.842392 444.721497,184.332901 
	C410.982117,228.274429 366.323486,253.834290 312.019196,263.133881 
	C308.434540,263.747772 304.809753,264.127625 300.831635,263.578796 
	C355.835693,245.092697 401.012512,214.175522 432.166504,164.183441 
	C429.293579,162.104034 426.488007,160.327728 424.017792,158.167847 
	C422.937469,157.223251 421.944672,155.448151 422.045715,154.137558 
	C422.113983,153.251923 424.064148,152.259338 425.346497,151.777359 
	C427.356934,151.021744 429.514252,150.657028 432.018188,150.067734 
z"/>
<path fill="#3A7DBD" opacity="1.000000" stroke="none" 
	d="
M353.110840,221.207764 
	C347.911743,223.328568 343.000397,225.226959 337.410767,227.387543 
	C337.410767,230.345184 337.410767,233.945679 337.410767,237.784149 
	C333.611420,237.784149 330.338470,237.784149 326.525879,237.784149 
	C326.525879,234.057373 326.525879,230.465439 326.525879,226.494110 
	C312.574188,224.728836 303.532532,217.728516 300.213318,203.700760 
	C305.751343,202.370956 311.013123,201.107483 316.182739,199.866135 
	C322.166046,211.080460 326.633118,213.835648 335.813995,212.202347 
	C340.152222,211.430588 343.214050,209.230591 343.997406,204.656677 
	C344.813324,199.892624 342.366486,197.002716 338.194183,195.416779 
	C332.286316,193.171143 326.272156,191.204178 320.371063,188.941727 
	C303.814789,182.594086 298.254120,166.855820 307.527863,152.818497 
	C311.823822,146.315765 318.532318,144.041489 325.814819,142.571320 
	C326.272827,139.618454 325.746826,135.456741 327.407013,134.212814 
	C329.494141,132.649033 333.370361,133.473114 336.941711,133.235733 
	C337.232056,136.544678 337.485046,139.428040 337.756989,142.527298 
	C349.201385,144.259949 357.319702,149.876450 360.851471,161.490112 
	C356.000824,163.312866 351.354156,165.058990 346.354858,166.937622 
	C345.393860,165.369308 344.718170,163.616928 343.498993,162.416580 
	C341.186859,160.140182 338.877075,157.355270 336.003143,156.261948 
	C330.171692,154.043533 324.446838,156.904404 322.830627,161.921768 
	C321.295990,166.685898 323.336426,169.896729 329.936615,172.546143 
	C336.420288,175.148788 343.187286,177.120224 349.484283,180.099274 
	C367.053467,188.411072 368.927979,209.116165 353.110840,221.207764 
z"/>
<path fill="#377BBE" opacity="1.000000" stroke="none" 
	d="
M433.871399,308.936554 
	C433.865204,278.637329 433.853027,248.827057 433.856293,219.016800 
	C433.857391,209.027695 434.889343,208.013733 445.097931,207.952011 
	C449.260895,207.926834 453.428864,207.870438 457.586456,208.034393 
	C462.801819,208.240082 464.982178,210.241806 464.993073,215.392578 
	C465.063110,248.532928 465.001251,281.673553 465.011444,314.814087 
	C465.012756,319.113342 462.768433,321.451599 458.694702,321.617584 
	C452.546906,321.868011 446.374634,321.905792 440.227753,321.659515 
	C435.891083,321.485809 433.609955,318.964142 433.882996,314.420227 
	C433.982635,312.761566 433.881134,311.090790 433.871399,308.936554 
M436.001221,278.500000 
	C436.001221,289.771606 436.001221,301.043213 436.001221,312.314819 
	C436.436401,312.304077 436.871582,312.293365 437.306763,312.282623 
	C437.306763,280.756531 437.306763,249.230423 437.306763,217.704315 
	C436.871582,217.704819 436.436401,217.705322 436.001221,217.705841 
	C436.001221,237.637222 436.001221,257.568604 436.001221,278.500000 
z"/>
<path fill="#3A7DBE" opacity="1.000000" stroke="none" 
	d="
M389.214020,278.000000 
	C389.227234,269.835785 389.130585,262.169312 389.287384,254.508041 
	C389.418365,248.107513 391.372162,246.261780 397.790894,246.120178 
	C402.287170,246.020981 406.787628,246.050598 411.285492,246.095154 
	C419.016479,246.171722 420.751984,247.752426 420.809113,255.459045 
	C420.920227,270.453491 420.849243,285.449280 420.851959,300.444489 
	C420.852753,304.776337 420.963348,309.112091 420.817902,313.439148 
	C420.604187,319.795929 418.630585,321.752991 412.301117,321.940430 
	C407.972931,322.068665 403.637482,322.029022 399.306519,321.972076 
	C391.063507,321.863770 389.252563,320.111877 389.210571,311.989471 
	C389.152832,300.826630 389.207428,289.663177 389.214020,278.000000 
z"/>
<path fill="#387BBE" opacity="1.000000" stroke="none" 
	d="
M358.101562,321.918121 
	C355.958649,321.876678 354.287415,321.929199 352.632050,321.791199 
	C346.818695,321.306458 345.098206,319.525116 345.041412,313.556000 
	C344.914673,300.241058 344.844727,286.925018 344.863647,273.609589 
	C344.872467,267.385315 347.070190,265.251984 353.350861,265.153931 
	C358.675629,265.070801 364.002991,265.142578 369.329163,265.163055 
	C373.767670,265.180084 376.191589,267.354401 376.196045,271.860870 
	C376.210205,286.174896 376.110626,300.489319 376.192078,314.802795 
	C376.218506,319.447479 373.806000,321.540771 369.561584,321.804626 
	C365.912842,322.031403 362.241699,321.898529 358.101562,321.918121 
z"/>
<path fill="#377BBD" opacity="1.000000" stroke="none" 
	d="
M325.448669,323.039886 
	C319.025299,323.107544 313.047577,323.102234 307.070587,323.166138 
	C302.308075,323.217041 299.982666,320.763885 299.954285,316.158783 
	C299.892883,306.195923 299.957581,296.232330 299.949188,286.269043 
	C299.945404,281.746399 302.518890,279.460938 306.687500,279.264191 
	C312.486023,278.990479 318.308716,279.080933 324.116943,279.206085 
	C328.701538,279.304871 331.115143,281.761078 331.111816,286.443542 
	C331.104797,296.407135 331.108490,306.370728 331.115723,316.334320 
	C331.118317,319.929688 329.765045,322.445099 325.448669,323.039886 
z"/>
<path fill="#243949" opacity="1.000000" stroke="none" 
	d="
M472.278992,369.148560 
	C455.362701,376.070679 438.819794,382.887238 422.274170,389.704926 
	C422.274170,385.569519 422.083344,381.286499 422.394989,377.040375 
	C422.483978,375.827789 423.806610,374.042725 424.941711,373.669159 
	C442.781036,367.798492 460.623962,361.922516 478.601532,356.496796 
	C484.746216,354.642273 490.787933,355.987183 496.237671,360.770844 
	C488.127655,363.615295 480.390015,366.329132 472.278992,369.148560 
z"/>
<path fill="#263B4A" opacity="1.000000" stroke="none" 
	d="
M440.248047,343.451355 
	C445.231140,342.653168 449.845551,341.269104 454.378174,341.498901 
	C457.911102,341.677979 461.342285,343.864380 464.818665,345.158752 
	C464.736328,345.580811 464.653992,346.002899 464.571655,346.424957 
	C448.629211,350.994934 432.686798,355.564911 416.378113,360.239868 
	C414.300262,357.737915 411.778992,354.701965 408.545593,350.808533 
	C419.321320,348.313202 429.582733,345.936951 440.248047,343.451355 
z"/>
<path fill="#317DB6" opacity="1.000000" stroke="none" 
	d="
M436.001221,278.000000 
	C436.001221,257.568604 436.001221,237.637222 436.001221,217.705841 
	C436.436401,217.705322 436.871582,217.704819 437.306763,217.704315 
	C437.306763,249.230423 437.306763,280.756531 437.306763,312.282623 
	C436.871582,312.293365 436.436401,312.304077 436.001221,312.314819 
	C436.001221,301.043213 436.001221,289.771606 436.001221,278.000000 
z"/>
</svg>