<svg version="1.1" id="Layer_1" xmlns="http://www.w3.org/2000/svg" xmlns:xlink="http://www.w3.org/1999/xlink" x="0px" y="0px"
	 width="100%" viewBox="0 0 698 374" enable-background="new 0 0 698 374" xml:space="preserve">
<path fill="#FEFFFE" opacity="1.000000" stroke="none" 
	d="
M1.000000,374.000000 
	C1.000000,250.308426 1.000000,126.616852 1.224827,2.362816 
	C1.718567,1.592346 1.902016,1.325561 2.000000,1.000000 
	C234.277466,1.000000 466.554932,1.000000 698.916199,1.000000 
	C698.916199,125.580757 698.916199,250.161591 698.916199,375.000000 
	C466.975159,375.000000 234.950211,375.000000 2.357065,374.777771 
	C1.599333,374.266113 1.336382,374.080933 1.000000,374.000000 
M630.806824,214.182053 
	C632.057495,209.948685 631.078186,206.462997 626.439514,203.048508 
	C627.124756,207.495102 627.666077,211.007828 628.132935,215.248566 
	C627.124817,218.390411 624.370911,218.880447 622.161438,217.823502 
	C620.474548,217.016556 618.868958,214.646896 618.525330,212.738647 
	C617.956909,209.581757 618.449829,206.245453 623.656250,205.470642 
	C618.698853,203.982132 617.290344,206.270782 616.548828,209.497070 
	C615.454346,214.259415 617.372131,218.609421 621.091370,219.840912 
	C625.043457,221.149506 628.322815,219.391510 630.806824,214.182053 
M165.975235,109.378120 
	C176.089706,114.622322 182.084213,122.958984 184.639984,133.972855 
	C186.049622,140.047546 185.156708,141.322189 179.032135,142.081268 
	C172.279144,142.918243 165.467377,143.605621 158.848602,145.099686 
	C153.414139,146.326416 149.357208,149.813553 147.208038,155.449280 
	C152.437607,155.044510 157.061340,154.262192 161.656723,154.403305 
	C183.340408,155.069138 199.386063,166.144363 211.914673,182.866959 
	C215.733734,187.964447 217.660126,188.948013 223.107559,183.014618 
	C225.369446,180.550964 227.425919,177.090622 227.806961,173.874008 
	C228.637634,166.861511 229.597900,159.468765 228.274567,152.665283 
	C222.605499,123.519424 196.356522,102.161736 165.900192,101.110252 
	C161.242035,100.949432 156.565460,101.322235 151.897400,101.448235 
	C151.785385,102.126358 151.673355,102.804489 151.561340,103.482613 
	C156.140884,105.340530 160.720428,107.198448 165.975235,109.378120 
M170.990906,287.687897 
	C188.188583,285.191681 205.709869,273.973419 209.580078,266.130554 
	C181.713959,274.197784 163.898285,269.645935 155.274872,252.255707 
	C178.101334,235.521133 178.174667,235.442398 177.763397,228.111847 
	C144.204163,242.954758 138.278122,243.289200 109.622208,231.889847 
	C105.159721,235.558884 102.888535,240.302429 102.862488,246.148132 
	C102.830505,253.325226 105.696625,259.425415 110.130280,264.802399 
	C125.766441,283.765503 146.105026,290.641571 170.990906,287.687897 
M104.318672,218.851028 
	C113.131493,222.756653 120.890755,229.997940 132.011887,227.895477 
	C131.560959,227.234436 131.436859,226.898392 131.195938,226.721268 
	C111.714951,212.399597 100.364731,193.976227 102.044472,168.977432 
	C102.296059,165.233078 100.224548,163.496445 96.851402,162.925278 
	C90.701012,161.883850 85.085930,163.419968 80.718513,167.715302 
	C67.715958,180.503220 60.776222,195.949081 62.634296,214.391190 
	C65.018188,238.052155 77.726883,255.385742 97.253807,268.139221 
	C98.813179,269.157684 100.742317,269.610016 102.977768,270.520142 
	C99.898041,265.384857 97.047714,260.966125 94.528748,256.365936 
	C88.295425,244.982513 88.731529,233.603561 94.771034,222.232819 
	C96.782341,218.446075 99.335022,216.596649 104.318672,218.851028 
M140.550323,111.889595 
	C97.859550,98.049576 62.267910,136.257248 59.312183,173.759933 
	C71.855820,150.381317 89.042076,140.649536 114.156815,149.611053 
	C112.807419,155.570923 111.074074,161.316605 110.297890,167.188797 
	C109.512611,173.129776 109.049774,179.299545 113.125755,185.447617 
	C113.713470,183.856567 114.077499,183.001358 114.348763,182.117676 
	C121.056992,160.264023 134.731812,144.359909 155.165421,134.182129 
	C160.921799,131.314926 161.408966,129.069901 157.840683,123.409721 
	C153.955826,117.247383 147.821701,114.404610 140.550323,111.889595 
M247.917786,202.199036 
	C248.908051,189.703003 247.260178,177.628723 241.976562,166.182465 
	C241.361893,164.850815 240.131958,163.803177 239.187256,162.623871 
	C238.783966,162.838196 238.380661,163.052521 237.977371,163.266861 
	C237.977371,166.730743 237.966721,170.194687 237.979279,173.658524 
	C238.028214,187.149796 231.935089,197.199646 220.699463,204.299438 
	C213.947922,208.565735 211.913696,207.666245 209.026642,200.312454 
	C206.728546,194.458893 204.127136,188.686218 201.154556,183.149200 
	C199.199615,179.507736 195.927979,177.267242 191.092300,178.440475 
	C191.474503,179.417404 191.751846,180.188004 192.073578,180.939606 
	C201.927200,203.959839 198.092331,224.741943 181.814896,243.464081 
	C177.310440,248.645065 177.431931,251.098618 183.093582,255.068298 
	C185.072281,256.455658 187.506577,257.489838 189.877548,257.968445 
	C198.816193,259.772827 207.092987,257.108185 214.781128,252.979523 
	C234.635330,242.317474 244.966232,225.142212 247.917786,202.199036 
M502.465393,167.717529 
	C504.569122,167.717529 506.672882,167.717529 508.784424,167.717529 
	C508.784424,170.223709 508.784424,172.120575 508.784424,174.916672 
	C500.533142,174.141876 492.679688,173.404434 484.867493,172.670853 
	C484.619049,178.122482 486.245728,179.959259 491.767487,180.014740 
	C496.932159,180.066620 502.097931,180.068726 507.262726,180.027542 
	C513.192017,179.980286 514.776062,178.034866 514.771362,170.964020 
	C514.766785,164.049026 513.110901,162.092651 507.078491,162.043198 
	C501.462860,161.997147 495.846497,162.033356 490.399353,162.033356 
	C490.399353,159.391251 490.399353,157.348648 490.399353,154.240509 
	C498.841766,155.281662 506.774536,156.259979 514.648621,157.231049 
	C514.277100,151.205872 513.009460,149.947327 507.151703,149.920959 
	C501.653442,149.896210 496.154846,149.947815 490.656677,149.915604 
	C486.779114,149.892883 484.804321,151.871704 484.555725,155.630997 
	C484.434998,157.456100 484.500305,159.294708 484.510468,161.127045 
	C484.534180,165.410324 486.787445,167.581329 490.981903,167.696182 
	C494.477936,167.791916 497.978699,167.716766 502.465393,167.717529 
M643.629395,162.036423 
	C641.848328,162.036423 640.067322,162.036423 638.391113,162.036423 
	C638.391113,159.442734 638.391113,157.400146 638.391113,155.083328 
	C643.056641,155.083328 647.409180,154.681900 651.647522,155.205338 
	C655.296448,155.655991 658.815125,157.161224 662.669800,158.281052 
	C662.369385,151.278717 661.095581,149.958023 655.322754,149.923630 
	C650.334534,149.893890 645.346008,149.903091 640.357666,149.922882 
	C633.828308,149.948776 632.531311,151.361328 632.503540,158.401276 
	C632.474121,165.857590 633.899902,167.621368 640.206726,167.689056 
	C645.782959,167.748917 651.360291,167.701599 656.721191,167.701599 
	C656.721191,170.352097 656.721191,172.242706 656.721191,174.985977 
	C648.414795,174.129654 640.569885,173.320923 632.767517,172.516571 
	C632.741577,178.289917 634.296875,179.971039 639.868591,180.015213 
	C645.189209,180.057388 650.511414,180.090454 655.831055,180.008835 
	C660.971619,179.929993 662.686096,177.852600 662.753235,171.913254 
	C662.836853,164.511536 661.346497,162.234039 656.065735,162.061234 
	C652.245422,161.936234 648.417664,162.036545 643.629395,162.036423 
M345.276794,155.194626 
	C345.276794,163.327560 345.276794,171.460495 345.276794,179.804657 
	C347.268982,179.804657 348.850861,179.804657 350.885864,179.804657 
	C350.885864,176.528549 350.885864,173.449570 350.885864,170.190979 
	C357.419250,170.190979 363.498932,170.190979 370.008911,170.190979 
	C370.008911,173.496506 370.008911,176.581482 370.008911,179.756348 
	C372.015076,179.756348 373.579926,179.756348 375.468719,179.756348 
	C375.468719,171.681198 375.548950,163.866974 375.436707,156.055527 
	C375.375610,151.804596 373.085022,149.784286 368.728943,149.892929 
	C363.232880,150.029999 357.726715,150.056183 352.232849,149.881073 
	C348.763275,149.770477 346.439331,150.965012 345.276794,155.194626 
M323.832062,158.637512 
	C322.441956,156.982346 320.853424,155.453354 319.703796,153.645309 
	C317.429077,150.067795 314.502228,148.932281 310.510681,150.439896 
	C310.510681,160.279160 310.510681,170.022720 310.510681,180.066345 
	C312.390656,179.977524 313.977264,179.902573 316.179260,179.798538 
	C316.179260,172.719696 316.179260,165.933167 316.179260,158.299744 
	C321.836304,164.956375 326.978516,170.630157 331.656647,176.663803 
	C334.166077,179.900375 336.803223,180.839279 340.457825,179.556152 
	C340.457825,169.643250 340.457825,159.911850 340.457825,150.134766 
	C338.547577,150.134766 336.948822,150.134766 334.925598,150.134766 
	C334.925598,157.051620 334.925598,163.762161 334.925598,171.592590 
	C330.880920,166.889450 327.573730,163.043854 323.832062,158.637512 
M384.153564,149.906906 
	C382.910339,150.029861 381.667114,150.152817 380.435150,150.274658 
	C380.435150,160.302277 380.435150,169.917526 380.435150,179.667847 
	C382.324646,179.667847 384.005005,179.667847 386.138794,179.667847 
	C386.138794,172.609756 386.138794,165.912460 386.138794,158.280823 
	C391.737640,164.856903 396.852875,170.512146 401.533936,176.506454 
	C404.009247,179.676193 406.609619,180.933578 410.509399,179.563034 
	C410.509399,169.779205 410.509399,160.019516 410.509399,150.090027 
	C408.640381,150.090027 407.036377,150.090027 404.979462,150.090027 
	C404.979462,156.973419 404.979462,163.696518 404.979462,171.721970 
	C399.145172,164.840439 394.195465,158.899811 389.107025,153.080551 
	C387.989441,151.802475 386.378387,150.955872 384.153564,149.906906 
M462.553345,149.937103 
	C460.057587,149.943146 457.357269,149.358536 455.127014,150.131073 
	C453.131714,150.822235 450.276733,152.927887 450.180420,154.550659 
	C449.682556,162.939545 449.949097,171.373795 449.949097,180.075089 
	C452.065430,179.954147 453.615509,179.865570 455.411926,179.762909 
	C455.411926,176.316177 455.411926,173.366608 455.411926,170.253418 
	C461.900208,170.253418 468.106567,170.253418 474.759155,170.253418 
	C474.759155,173.639832 474.759155,176.719284 474.759155,179.832855 
	C476.659058,179.832855 478.107941,179.832855 479.963287,179.832855 
	C479.963287,171.545120 480.109619,163.425171 479.894165,155.314835 
	C479.802826,151.876114 477.643951,149.921570 474.012695,149.939102 
	C470.518768,149.955963 467.024658,149.939117 462.553345,149.937103 
M426.517700,149.929138 
	C422.747406,149.929138 418.977142,149.929138 415.258453,149.929138 
	C415.258453,151.915100 415.258453,153.318649 415.258453,155.257172 
	C422.361877,155.257172 429.209045,155.257172 437.152679,155.257172 
	C430.414734,160.937408 424.734100,166.014389 418.727844,170.671417 
	C415.601471,173.095474 414.199585,175.711136 415.291138,179.770233 
	C425.110107,179.770233 435.003815,179.770233 445.157440,179.770233 
	C445.074982,177.917953 445.004059,176.324829 444.910950,174.233673 
	C437.933228,174.233673 431.237488,174.233673 423.303802,174.233673 
	C430.079590,168.543274 436.052216,163.876221 441.565308,158.717987 
	C443.639618,156.777191 444.648315,153.697464 446.847778,149.929138 
	C439.076508,149.929138 433.293640,149.929138 426.517700,149.929138 
M533.784485,149.943115 
	C533.239014,150.430008 532.222656,150.912201 532.217773,151.404480 
	C532.123535,160.839722 532.148071,170.276154 532.148071,179.763306 
	C534.203186,179.763306 535.784546,179.763306 537.931519,179.763306 
	C537.931519,176.300278 537.931519,173.084793 537.931519,169.715591 
	C543.810669,169.715591 549.123230,169.763321 554.434570,169.703064 
	C560.567688,169.633499 562.362915,167.788086 562.491943,161.588715 
	C562.523071,160.092636 562.548279,158.593674 562.493408,157.099075 
	C562.298157,151.776489 560.475586,149.951813 555.196472,149.920380 
	C548.377686,149.879761 541.558533,149.919296 533.784485,149.943115 
M597.924316,150.819641 
	C597.905212,158.299149 597.925354,165.779053 597.851074,173.258011 
	C597.812012,177.194214 599.477234,179.810547 603.519592,179.951065 
	C609.828125,180.170395 616.197998,180.441010 622.438660,179.753448 
	C624.450378,179.531815 627.576599,176.467972 627.721313,174.520660 
	C628.320312,166.459625 627.972595,158.328217 627.972595,149.912994 
	C625.945068,150.003311 624.383240,150.072891 622.446655,150.159164 
	C622.446655,158.270340 622.446655,166.021896 622.446655,173.947357 
	C615.850159,173.947357 609.651245,173.947357 603.166565,173.947357 
	C603.166565,165.814087 603.166565,158.034103 603.166565,150.057922 
	C601.401611,150.057922 599.926697,150.057922 597.924316,150.819641 
M277.622131,155.125534 
	C284.549988,155.125534 291.477844,155.125534 298.490845,155.125534 
	C298.490845,153.123398 298.490845,151.726776 298.490845,150.270355 
	C289.213287,150.270355 280.191345,150.270355 271.262268,150.270355 
	C271.262268,160.356995 271.262268,170.095840 271.262268,180.094315 
	C273.118744,179.963150 274.681641,179.852737 276.647888,179.713821 
	C276.647888,175.600601 276.647888,171.848801 276.647888,167.704315 
	C282.638947,167.704315 288.212799,167.704315 293.893494,167.704315 
	C293.893494,165.565445 293.893494,163.862915 293.893494,161.846497 
	C287.929535,161.846497 282.318451,161.846497 276.466431,161.846497 
	C276.572540,159.547592 276.663605,157.574814 277.622131,155.125534 
M595.490295,178.399475 
	C596.034485,175.131790 594.731262,174.069351 591.395203,174.195465 
	C584.663574,174.449936 577.915527,174.271286 570.806030,174.271286 
	C570.806030,165.816772 570.806030,158.060760 570.806030,150.287689 
	C568.714966,150.287689 567.019470,150.287689 565.430481,150.287689 
	C565.430481,160.387329 565.430481,170.105270 565.430481,180.036057 
	C570.249573,180.036057 574.731689,180.136078 579.207458,180.010315 
	C584.604248,179.858658 589.995605,179.515320 595.490295,178.399475 
M301.083313,175.318695 
	C301.153290,176.776108 301.223267,178.233521 301.292206,179.669022 
	C303.289459,179.669022 304.993469,179.669022 306.569702,179.669022 
	C306.569702,169.567764 306.569702,159.837723 306.569702,149.857117 
	C304.615112,149.959808 303.021118,150.043549 301.083374,150.145355 
	C301.083374,158.425369 301.083374,166.388565 301.083313,175.318695 
M362.488556,219.433578 
	C370.901428,221.273605 372.178802,220.127625 370.552887,211.890778 
	C369.065521,211.981232 367.545593,212.073654 366.393585,212.143707 
	C367.494263,213.935760 368.500793,215.574539 369.783142,217.662384 
	C364.448730,218.660980 360.755859,218.120956 360.434143,213.278336 
	C360.285919,211.047546 361.572205,207.866882 363.296692,206.606735 
	C365.018890,205.348267 368.101349,205.951324 371.069153,205.697037 
	C366.324280,203.001740 362.145172,203.565033 359.663483,206.858994 
	C356.852356,210.590225 357.666687,215.409012 362.488556,219.433578 
M604.815552,216.796814 
	C603.646729,215.048950 602.363647,213.788422 604.474854,211.311768 
	C607.225403,208.085098 605.206299,204.399750 600.907043,203.943512 
	C599.176208,203.759811 597.409546,203.913239 596.047546,203.913239 
	C596.047546,209.678589 596.047546,214.787537 596.047546,219.896484 
	C596.429138,219.881927 596.810791,219.867386 597.192383,219.852844 
	C597.314880,217.986115 597.437439,216.119385 597.559937,214.252655 
	C597.967834,213.957672 598.375732,213.662674 598.783630,213.367691 
	C601.042419,215.651443 603.301208,217.935211 605.559998,220.218964 
	C605.791748,219.987869 606.023499,219.756775 606.255249,219.525681 
	C605.894226,218.838913 605.533203,218.152145 604.815552,216.796814 
M458.137390,217.624802 
	C461.328857,210.959167 459.558685,204.439560 454.040405,204.197556 
	C451.448486,204.083893 447.762909,205.760773 446.324768,207.838699 
	C444.092316,211.064209 444.522461,215.353882 447.700317,218.263733 
	C450.776062,221.080109 454.308655,220.817566 458.137390,217.624802 
M390.850616,215.175156 
	C391.794952,216.841705 392.739319,218.508240 393.683655,220.174774 
	C394.074524,219.941650 394.465393,219.708511 394.856232,219.475372 
	C392.300201,214.993469 392.591339,209.009048 387.746063,205.748306 
	C385.351074,210.668762 383.218414,215.050217 381.085754,219.431671 
	C381.538208,219.741745 381.990692,220.051804 382.443176,220.361877 
	C383.688965,216.493408 385.605835,213.674561 390.850616,215.175156 
M579.785156,217.245087 
	C574.067871,218.907028 572.929626,218.116760 572.864807,212.381836 
	C572.833313,209.587173 572.859375,206.791855 572.859375,203.996841 
	C572.322083,204.001099 571.784790,204.005371 571.247498,204.009628 
	C571.247498,208.295654 570.897034,212.628677 571.461731,216.838974 
	C571.630371,218.096298 574.351685,219.854660 575.918518,219.870316 
	C577.935608,219.890427 581.410339,218.749496 581.730408,217.474411 
	C582.807373,213.184174 582.763611,208.612625 583.148682,204.148712 
	C582.530884,204.125900 581.913086,204.103088 581.295288,204.080261 
	C580.973267,208.237122 580.651245,212.393967 579.785156,217.245087 
M547.886108,206.900482 
	C544.724487,210.234314 545.023376,213.979797 547.373596,217.347763 
	C549.816956,220.849289 554.029297,221.075638 557.262634,219.452942 
	C558.790405,218.686203 558.777344,214.849457 559.624329,211.825775 
	C556.840820,211.965363 555.281372,212.043564 553.734070,212.121155 
	C555.025940,213.889984 556.170044,215.456451 557.314148,217.022934 
	C556.856934,217.617767 556.399719,218.212616 555.942505,218.807465 
	C553.563354,217.796982 550.172974,217.430191 549.029236,215.633347 
	C547.046936,212.519073 546.882874,208.569504 551.253723,204.816818 
	C549.481384,205.838974 548.908997,206.169113 547.886108,206.900482 
M530.500610,218.164368 
	C529.462830,216.746811 528.425110,215.329239 526.951538,213.316330 
	C530.570190,212.865036 532.513184,212.622726 534.456177,212.380417 
	C534.424377,211.995758 534.392517,211.611099 534.360718,211.226440 
	C532.355225,211.022263 530.349731,210.818085 528.112244,210.590286 
	C528.198547,208.936783 528.271729,207.533340 528.342163,206.184494 
	C530.768066,205.874008 532.854492,205.606979 534.940918,205.339951 
	C534.893188,204.969955 534.845459,204.599976 534.797729,204.229980 
	C531.992493,204.229980 529.187195,204.229980 526.250122,204.229980 
	C526.250122,209.551712 526.250122,214.605301 526.250122,219.669022 
	C529.279297,219.669022 532.041504,219.669022 534.803711,219.669022 
	C534.839417,219.350479 534.875061,219.031921 534.910706,218.713379 
	C533.733948,218.529572 532.557190,218.345749 530.500610,218.164368 
M432.101013,203.886871 
	C429.334106,203.886871 426.567230,203.886871 423.800323,203.886871 
	C423.794006,204.346802 423.787689,204.806717 423.781342,205.266647 
	C425.387512,205.693649 426.993683,206.120651 429.171631,206.699677 
	C429.171631,211.204025 429.171631,215.594635 429.171631,219.985229 
	C429.590729,219.969696 430.009857,219.954163 430.428955,219.938644 
	C430.428955,215.435211 430.428955,210.931778 430.428955,206.623505 
	C432.543610,205.951584 434.043457,205.475006 435.543304,204.998428 
	C435.479248,204.723572 435.415222,204.448700 435.351166,204.173828 
	C434.549927,204.078156 433.748718,203.982483 432.101013,203.886871 
M474.905731,203.955505 
	C473.551086,205.346680 471.044464,206.819824 471.136108,208.108078 
	C471.248413,209.686066 473.468414,211.178619 474.904510,212.577316 
	C476.034027,213.677444 477.356842,214.579193 478.593781,215.569077 
	C477.602234,216.651901 476.610687,217.734741 475.619171,218.817566 
	C477.495422,218.723068 480.082520,217.766068 480.058777,216.879028 
	C480.012482,215.153671 478.718292,213.295746 477.539581,211.811478 
	C476.249908,210.187485 474.506439,208.923889 472.960754,207.503220 
	C475.019409,206.987244 477.081421,206.483871 479.131500,205.935730 
	C479.335083,205.881287 479.465698,205.554001 480.148468,204.721222 
	C478.385712,204.412552 477.047211,204.178192 474.905731,203.955505 
M511.942932,214.037842 
	C512.132446,215.448181 512.321960,216.858521 512.680725,219.528473 
	C513.756287,217.523056 515.106323,216.085358 514.795288,215.360291 
	C514.153564,213.864517 512.656250,212.719147 511.454315,211.484756 
	C510.097412,210.091278 508.678314,208.758377 507.286285,207.399124 
	C509.072418,206.957932 510.859009,206.518738 512.644287,206.074112 
	C513.073914,205.967117 513.499084,205.842072 513.926270,205.725327 
	C513.934387,205.312851 513.942444,204.900375 513.950562,204.487900 
	C511.778351,204.487900 509.507599,204.112228 507.475250,204.645416 
	C506.449310,204.914581 504.938416,207.245895 505.244232,207.919647 
	C506.039856,209.672256 507.650665,211.093109 509.079803,212.500443 
	C509.630157,213.042389 510.569214,213.189621 511.942932,214.037842 
M642.652344,205.639694 
	C640.242126,210.104416 643.529419,211.379288 646.593567,212.986191 
	C647.773926,213.605179 648.602844,214.894226 649.591919,215.877975 
	C648.551758,216.819321 647.511536,217.760651 646.471313,218.701996 
	C648.548767,218.627167 651.212952,217.531952 651.158630,216.594315 
	C651.059326,214.881134 649.513062,213.125870 648.269104,211.640305 
	C647.021362,210.150040 645.406006,208.967560 643.951721,207.650177 
	C645.806152,207.112625 647.661987,206.579544 649.514038,206.033997 
	C649.915100,205.915863 650.303040,205.753021 650.696960,205.610794 
	C650.634705,205.084915 650.572388,204.559036 650.510071,204.033157 
	C648.052856,204.385330 645.595642,204.737503 642.652344,205.639694 
M327.412445,212.304565 
	C328.800354,213.539749 330.188293,214.774918 331.576202,216.010086 
	C330.565399,216.925964 329.554565,217.841827 328.543762,218.757690 
	C330.482025,218.718124 333.060028,217.777817 333.034760,216.913605 
	C332.984222,215.184738 331.731201,213.321243 330.560852,211.840424 
	C329.269135,210.206055 327.513336,208.938431 325.959686,207.511078 
	C328.016815,206.996399 330.077240,206.494217 332.125946,205.947998 
	C332.334564,205.892365 332.472626,205.572006 332.895386,205.083115 
	C329.714508,203.322479 326.656555,202.992111 324.493652,206.002487 
	C322.681000,208.525345 324.152954,210.700409 327.412445,212.304565 
M302.612793,219.094070 
	C307.481598,220.803604 308.332367,220.627319 310.647919,217.429031 
	C302.972504,218.902771 302.234009,218.275192 302.244720,210.294479 
	C302.247498,208.208206 302.245117,206.121933 302.245117,204.035660 
	C301.607452,204.073685 300.969818,204.111710 300.332153,204.149750 
	C300.539215,208.991119 298.664886,213.957260 302.612793,219.094070 
M410.003418,212.422104 
	C413.734772,217.187531 413.734772,217.187531 404.667694,219.055191 
	C407.007690,219.626709 409.566528,220.199020 411.607941,219.418289 
	C412.892456,218.927032 413.614532,216.464645 414.068848,214.748810 
	C414.154083,214.426941 411.846954,213.125870 410.524200,212.849777 
	C407.861603,212.294006 405.149933,208.583466 405.612183,206.005173 
	C404.848969,209.160858 406.149628,211.200546 410.003418,212.422104 
M312.193054,210.472931 
	C312.052155,208.652939 311.911224,206.832962 311.770294,205.012970 
	C311.420197,205.054153 311.070068,205.095337 310.719971,205.136536 
	C310.719971,208.475189 310.719971,211.813858 310.719971,215.152527 
	C311.087494,215.172394 311.454987,215.192261 311.822510,215.212128 
	C311.945160,213.892715 312.067810,212.573303 312.193054,210.472931 
M281.657379,203.973068 
	C280.425659,204.123199 279.193970,204.273331 277.962250,204.423477 
	C278.003052,204.814651 278.043854,205.205841 278.084656,205.597031 
	C279.626404,205.844299 281.168121,206.091583 283.153320,206.409988 
	C283.153320,210.792221 283.153320,215.060318 283.153320,219.642166 
	C286.309967,214.603363 279.619232,206.895203 289.570038,203.974319 
	C286.520966,203.974319 284.537170,203.974319 281.657379,203.973068 
z"/>
<path fill="#EDEDED" opacity="1.000000" stroke="none" 
	d="
M1.000000,374.500000 
	C1.336382,374.080933 1.599333,374.266113 1.894426,374.777771 
	C1.666667,375.000000 1.333333,375.000000 1.000000,374.500000 
z"/>
<path fill="#EDEDED" opacity="1.000000" stroke="none" 
	d="
M1.500000,1.000000 
	C1.902016,1.325561 1.718567,1.592346 1.224827,1.900178 
	C1.000000,1.666667 1.000000,1.333333 1.500000,1.000000 
z"/>
<path fill="#06A899" opacity="1.000000" stroke="none" 
	d="
M165.637604,109.217247 
	C160.720428,107.198448 156.140884,105.340530 151.561340,103.482613 
	C151.673355,102.804489 151.785385,102.126358 151.897400,101.448235 
	C156.565460,101.322235 161.242035,100.949432 165.900192,101.110252 
	C196.356522,102.161736 222.605499,123.519424 228.274567,152.665283 
	C229.597900,159.468765 228.637634,166.861511 227.806961,173.874008 
	C227.425919,177.090622 225.369446,180.550964 223.107559,183.014618 
	C217.660126,188.948013 215.733734,187.964447 211.914673,182.866959 
	C199.386063,166.144363 183.340408,155.069138 161.656723,154.403305 
	C157.061340,154.262192 152.437607,155.044510 147.208038,155.449280 
	C149.357208,149.813553 153.414139,146.326416 158.848602,145.099686 
	C165.467377,143.605621 172.279144,142.918243 179.032135,142.081268 
	C185.156708,141.322189 186.049622,140.047546 184.639984,133.972855 
	C182.084213,122.958984 176.089706,114.622322 165.637604,109.217247 
z"/>
<path fill="#3C5875" opacity="1.000000" stroke="none" 
	d="
M170.559204,287.772217 
	C146.105026,290.641571 125.766441,283.765503 110.130280,264.802399 
	C105.696625,259.425415 102.830505,253.325226 102.862488,246.148132 
	C102.888535,240.302429 105.159721,235.558884 109.622208,231.889847 
	C138.278122,243.289200 144.204163,242.954758 177.763397,228.111847 
	C178.174667,235.442398 178.101334,235.521133 155.274872,252.255707 
	C163.898285,269.645935 181.713959,274.197784 209.580078,266.130554 
	C205.709869,273.973419 188.188583,285.191681 170.559204,287.772217 
z"/>
<path fill="#164C9A" opacity="1.000000" stroke="none" 
	d="
M103.967087,218.666931 
	C99.335022,216.596649 96.782341,218.446075 94.771034,222.232819 
	C88.731529,233.603561 88.295425,244.982513 94.528748,256.365936 
	C97.047714,260.966125 99.898041,265.384857 102.977768,270.520142 
	C100.742317,269.610016 98.813179,269.157684 97.253807,268.139221 
	C77.726883,255.385742 65.018188,238.052155 62.634296,214.391190 
	C60.776222,195.949081 67.715958,180.503220 80.718513,167.715302 
	C85.085930,163.419968 90.701012,161.883850 96.851402,162.925278 
	C100.224548,163.496445 102.296059,165.233078 102.044472,168.977432 
	C100.364731,193.976227 111.714951,212.399597 131.195938,226.721268 
	C131.436859,226.898392 131.560959,227.234436 132.011887,227.895477 
	C120.890755,229.997940 113.131493,222.756653 103.967087,218.666931 
z"/>
<path fill="#2BA9DE" opacity="1.000000" stroke="none" 
	d="
M140.930756,111.992767 
	C147.821701,114.404610 153.955826,117.247383 157.840683,123.409721 
	C161.408966,129.069901 160.921799,131.314926 155.165421,134.182129 
	C134.731812,144.359909 121.056992,160.264023 114.348763,182.117676 
	C114.077499,183.001358 113.713470,183.856567 113.125755,185.447617 
	C109.049774,179.299545 109.512611,173.129776 110.297890,167.188797 
	C111.074074,161.316605 112.807419,155.570923 114.156815,149.611053 
	C89.042076,140.649536 71.855820,150.381317 59.312183,173.759933 
	C62.267910,136.257248 97.859550,98.049576 140.930756,111.992767 
z"/>
<path fill="#4CB44E" opacity="1.000000" stroke="none" 
	d="
M247.882599,202.660889 
	C244.966232,225.142212 234.635330,242.317474 214.781128,252.979523 
	C207.092987,257.108185 198.816193,259.772827 189.877548,257.968445 
	C187.506577,257.489838 185.072281,256.455658 183.093582,255.068298 
	C177.431931,251.098618 177.310440,248.645065 181.814896,243.464081 
	C198.092331,224.741943 201.927200,203.959839 192.073578,180.939606 
	C191.751846,180.188004 191.474503,179.417404 191.092300,178.440475 
	C195.927979,177.267242 199.199615,179.507736 201.154556,183.149200 
	C204.127136,188.686218 206.728546,194.458893 209.026642,200.312454 
	C211.913696,207.666245 213.947922,208.565735 220.699463,204.299438 
	C231.935089,197.199646 238.028214,187.149796 237.979279,173.658524 
	C237.966721,170.194687 237.977371,166.730743 237.977371,163.266861 
	C238.380661,163.052521 238.783966,162.838196 239.187256,162.623871 
	C240.131958,163.803177 241.361893,164.850815 241.976562,166.182465 
	C247.260178,177.628723 248.908051,189.703003 247.882599,202.660889 
z"/>
<path fill="#1E1E1D" opacity="1.000000" stroke="none" 
	d="
M501.971375,167.717407 
	C497.978699,167.716766 494.477936,167.791916 490.981903,167.696182 
	C486.787445,167.581329 484.534180,165.410324 484.510468,161.127045 
	C484.500305,159.294708 484.434998,157.456100 484.555725,155.630997 
	C484.804321,151.871704 486.779114,149.892883 490.656677,149.915604 
	C496.154846,149.947815 501.653442,149.896210 507.151703,149.920959 
	C513.009460,149.947327 514.277100,151.205872 514.648621,157.231049 
	C506.774536,156.259979 498.841766,155.281662 490.399353,154.240509 
	C490.399353,157.348648 490.399353,159.391251 490.399353,162.033356 
	C495.846497,162.033356 501.462860,161.997147 507.078491,162.043198 
	C513.110901,162.092651 514.766785,164.049026 514.771362,170.964020 
	C514.776062,178.034866 513.192017,179.980286 507.262726,180.027542 
	C502.097931,180.068726 496.932159,180.066620 491.767487,180.014740 
	C486.245728,179.959259 484.619049,178.122482 484.867493,172.670853 
	C492.679688,173.404434 500.533142,174.141876 508.784424,174.916672 
	C508.784424,172.120575 508.784424,170.223709 508.784424,167.717529 
	C506.672882,167.717529 504.569122,167.717529 501.971375,167.717407 
z"/>
<path fill="#1E1E1D" opacity="1.000000" stroke="none" 
	d="
M644.111328,162.036392 
	C648.417664,162.036545 652.245422,161.936234 656.065735,162.061234 
	C661.346497,162.234039 662.836853,164.511536 662.753235,171.913254 
	C662.686096,177.852600 660.971619,179.929993 655.831055,180.008835 
	C650.511414,180.090454 645.189209,180.057388 639.868591,180.015213 
	C634.296875,179.971039 632.741577,178.289917 632.767517,172.516571 
	C640.569885,173.320923 648.414795,174.129654 656.721191,174.985977 
	C656.721191,172.242706 656.721191,170.352097 656.721191,167.701599 
	C651.360291,167.701599 645.782959,167.748917 640.206726,167.689056 
	C633.899902,167.621368 632.474121,165.857590 632.503540,158.401276 
	C632.531311,151.361328 633.828308,149.948776 640.357666,149.922882 
	C645.346008,149.903091 650.334534,149.893890 655.322754,149.923630 
	C661.095581,149.958023 662.369385,151.278717 662.669800,158.281052 
	C658.815125,157.161224 655.296448,155.655991 651.647522,155.205338 
	C647.409180,154.681900 643.056641,155.083328 638.391113,155.083328 
	C638.391113,157.400146 638.391113,159.442734 638.391113,162.036423 
	C640.067322,162.036423 641.848328,162.036423 644.111328,162.036392 
z"/>
<path fill="#1B1B19" opacity="1.000000" stroke="none" 
	d="
M345.325745,154.764191 
	C346.439331,150.965012 348.763275,149.770477 352.232849,149.881073 
	C357.726715,150.056183 363.232880,150.029999 368.728943,149.892929 
	C373.085022,149.784286 375.375610,151.804596 375.436707,156.055527 
	C375.548950,163.866974 375.468719,171.681198 375.468719,179.756348 
	C373.579926,179.756348 372.015076,179.756348 370.008911,179.756348 
	C370.008911,176.581482 370.008911,173.496506 370.008911,170.190979 
	C363.498932,170.190979 357.419250,170.190979 350.885864,170.190979 
	C350.885864,173.449570 350.885864,176.528549 350.885864,179.804657 
	C348.850861,179.804657 347.268982,179.804657 345.276794,179.804657 
	C345.276794,171.460495 345.276794,163.327560 345.325745,154.764191 
M354.630524,164.052353 
	C359.708191,164.052353 364.785858,164.052353 369.775208,164.052353 
	C369.775208,160.763123 369.775208,158.162827 369.775208,155.441437 
	C363.372803,155.441437 357.203766,155.441437 350.882568,155.441437 
	C350.882568,157.803452 350.592682,159.854889 351.007812,161.752060 
	C351.208191,162.667953 352.734833,163.293671 354.630524,164.052353 
z"/>
<path fill="#222221" opacity="1.000000" stroke="none" 
	d="
M324.049316,158.917877 
	C327.573730,163.043854 330.880920,166.889450 334.925598,171.592590 
	C334.925598,163.762161 334.925598,157.051620 334.925598,150.134766 
	C336.948822,150.134766 338.547577,150.134766 340.457825,150.134766 
	C340.457825,159.911850 340.457825,169.643250 340.457825,179.556152 
	C336.803223,180.839279 334.166077,179.900375 331.656647,176.663803 
	C326.978516,170.630157 321.836304,164.956375 316.179260,158.299744 
	C316.179260,165.933167 316.179260,172.719696 316.179260,179.798538 
	C313.977264,179.902573 312.390656,179.977524 310.510681,180.066345 
	C310.510681,170.022720 310.510681,160.279160 310.510681,150.439896 
	C314.502228,148.932281 317.429077,150.067795 319.703796,153.645309 
	C320.853424,155.453354 322.441956,156.982346 324.049316,158.917877 
z"/>
<path fill="#222221" opacity="1.000000" stroke="none" 
	d="
M384.574097,149.908752 
	C386.378387,150.955872 387.989441,151.802475 389.107025,153.080551 
	C394.195465,158.899811 399.145172,164.840439 404.979462,171.721970 
	C404.979462,163.696518 404.979462,156.973419 404.979462,150.090027 
	C407.036377,150.090027 408.640381,150.090027 410.509399,150.090027 
	C410.509399,160.019516 410.509399,169.779205 410.509399,179.563034 
	C406.609619,180.933578 404.009247,179.676193 401.533936,176.506454 
	C396.852875,170.512146 391.737640,164.856903 386.138794,158.280823 
	C386.138794,165.912460 386.138794,172.609756 386.138794,179.667847 
	C384.005005,179.667847 382.324646,179.667847 380.435150,179.667847 
	C380.435150,169.917526 380.435150,160.302277 380.435150,150.274658 
	C381.667114,150.152817 382.910339,150.029861 384.574097,149.908752 
z"/>
<path fill="#161614" opacity="1.000000" stroke="none" 
	d="
M463.041992,149.937103 
	C467.024658,149.939117 470.518768,149.955963 474.012695,149.939102 
	C477.643951,149.921570 479.802826,151.876114 479.894165,155.314835 
	C480.109619,163.425171 479.963287,171.545120 479.963287,179.832855 
	C478.107941,179.832855 476.659058,179.832855 474.759155,179.832855 
	C474.759155,176.719284 474.759155,173.639832 474.759155,170.253418 
	C468.106567,170.253418 461.900208,170.253418 455.411926,170.253418 
	C455.411926,173.366608 455.411926,176.316177 455.411926,179.762909 
	C453.615509,179.865570 452.065430,179.954147 449.949097,180.075089 
	C449.949097,171.373795 449.682556,162.939545 450.180420,154.550659 
	C450.276733,152.927887 453.131714,150.822235 455.127014,150.131073 
	C457.357269,149.358536 460.057587,149.943146 463.041992,149.937103 
M455.299835,163.193634 
	C461.580963,163.604767 467.862091,164.015900 474.269836,164.435318 
	C474.269836,160.804153 474.269836,158.081787 474.269836,155.439651 
	C467.736908,155.439651 461.553986,155.439651 455.201172,155.439651 
	C455.201172,157.984680 455.201172,160.130402 455.299835,163.193634 
z"/>
<path fill="#191918" opacity="1.000000" stroke="none" 
	d="
M427.014221,149.929138 
	C433.293640,149.929138 439.076508,149.929138 446.847778,149.929138 
	C444.648315,153.697464 443.639618,156.777191 441.565308,158.717987 
	C436.052216,163.876221 430.079590,168.543274 423.303802,174.233673 
	C431.237488,174.233673 437.933228,174.233673 444.910950,174.233673 
	C445.004059,176.324829 445.074982,177.917953 445.157440,179.770233 
	C435.003815,179.770233 425.110107,179.770233 415.291138,179.770233 
	C414.199585,175.711136 415.601471,173.095474 418.727844,170.671417 
	C424.734100,166.014389 430.414734,160.937408 437.152679,155.257172 
	C429.209045,155.257172 422.361877,155.257172 415.258453,155.257172 
	C415.258453,153.318649 415.258453,151.915100 415.258453,149.929138 
	C418.977142,149.929138 422.747406,149.929138 427.014221,149.929138 
z"/>
<path fill="#1D1D1C" opacity="1.000000" stroke="none" 
	d="
M534.261963,149.933716 
	C541.558533,149.919296 548.377686,149.879761 555.196472,149.920380 
	C560.475586,149.951813 562.298157,151.776489 562.493408,157.099075 
	C562.548279,158.593674 562.523071,160.092636 562.491943,161.588715 
	C562.362915,167.788086 560.567688,169.633499 554.434570,169.703064 
	C549.123230,169.763321 543.810669,169.715591 537.931519,169.715591 
	C537.931519,173.084793 537.931519,176.300278 537.931519,179.763306 
	C535.784546,179.763306 534.203186,179.763306 532.148071,179.763306 
	C532.148071,170.276154 532.123535,160.839722 532.217773,151.404480 
	C532.222656,150.912201 533.239014,150.430008 534.261963,149.933716 
M539.813049,155.246552 
	C538.864075,157.924500 537.915100,160.602432 536.849304,163.609848 
	C544.417969,163.609848 550.611206,163.609848 556.515381,163.609848 
	C556.515381,160.646423 556.515381,158.076843 556.515381,155.239182 
	C551.017578,155.239182 545.890503,155.239182 539.813049,155.246552 
z"/>
<path fill="#191917" opacity="1.000000" stroke="none" 
	d="
M598.188049,150.438782 
	C599.926697,150.057922 601.401611,150.057922 603.166565,150.057922 
	C603.166565,158.034103 603.166565,165.814087 603.166565,173.947357 
	C609.651245,173.947357 615.850159,173.947357 622.446655,173.947357 
	C622.446655,166.021896 622.446655,158.270340 622.446655,150.159164 
	C624.383240,150.072891 625.945068,150.003311 627.972595,149.912994 
	C627.972595,158.328217 628.320312,166.459625 627.721313,174.520660 
	C627.576599,176.467972 624.450378,179.531815 622.438660,179.753448 
	C616.197998,180.441010 609.828125,180.170395 603.519592,179.951065 
	C599.477234,179.810547 597.812012,177.194214 597.851074,173.258011 
	C597.925354,165.779053 597.905212,158.299149 598.188049,150.438782 
z"/>
<path fill="#1B1B19" opacity="1.000000" stroke="none" 
	d="
M277.188416,155.363770 
	C276.663605,157.574814 276.572540,159.547592 276.466431,161.846497 
	C282.318451,161.846497 287.929535,161.846497 293.893494,161.846497 
	C293.893494,163.862915 293.893494,165.565445 293.893494,167.704315 
	C288.212799,167.704315 282.638947,167.704315 276.647888,167.704315 
	C276.647888,171.848801 276.647888,175.600601 276.647888,179.713821 
	C274.681641,179.852737 273.118744,179.963150 271.262268,180.094315 
	C271.262268,170.095840 271.262268,160.356995 271.262268,150.270355 
	C280.191345,150.270355 289.213287,150.270355 298.490845,150.270355 
	C298.490845,151.726776 298.490845,153.123398 298.490845,155.125534 
	C291.477844,155.125534 284.549988,155.125534 277.188416,155.363770 
z"/>
<path fill="#222221" opacity="1.000000" stroke="none" 
	d="
M595.439819,178.827209 
	C589.995605,179.515320 584.604248,179.858658 579.207458,180.010315 
	C574.731689,180.136078 570.249573,180.036057 565.430481,180.036057 
	C565.430481,170.105270 565.430481,160.387329 565.430481,150.287689 
	C567.019470,150.287689 568.714966,150.287689 570.806030,150.287689 
	C570.806030,158.060760 570.806030,165.816772 570.806030,174.271286 
	C577.915527,174.271286 584.663574,174.449936 591.395203,174.195465 
	C594.731262,174.069351 596.034485,175.131790 595.439819,178.827209 
z"/>
<path fill="#242523" opacity="1.000000" stroke="none" 
	d="
M301.083344,174.835220 
	C301.083374,166.388565 301.083374,158.425369 301.083374,150.145355 
	C303.021118,150.043549 304.615112,149.959808 306.569702,149.857117 
	C306.569702,159.837723 306.569702,169.567764 306.569702,179.669022 
	C304.993469,179.669022 303.289459,179.669022 301.292206,179.669022 
	C301.223267,178.233521 301.153290,176.776108 301.083344,174.835220 
z"/>
<path fill="#373737" opacity="1.000000" stroke="none" 
	d="
M362.112976,219.282288 
	C357.666687,215.409012 356.852356,210.590225 359.663483,206.858994 
	C362.145172,203.565033 366.324280,203.001740 371.069153,205.697037 
	C368.101349,205.951324 365.018890,205.348267 363.296692,206.606735 
	C361.572205,207.866882 360.285919,211.047546 360.434143,213.278336 
	C360.755859,218.120956 364.448730,218.660980 369.783142,217.662384 
	C368.500793,215.574539 367.494263,213.935760 366.393585,212.143707 
	C367.545593,212.073654 369.065521,211.981232 370.552887,211.890778 
	C372.178802,220.127625 370.901428,221.273605 362.112976,219.282288 
z"/>
<path fill="#454545" opacity="1.000000" stroke="none" 
	d="
M604.993835,217.131104 
	C605.533203,218.152145 605.894226,218.838913 606.255249,219.525681 
	C606.023499,219.756775 605.791748,219.987869 605.559998,220.218964 
	C603.301208,217.935211 601.042419,215.651443 598.783630,213.367691 
	C598.375732,213.662674 597.967834,213.957672 597.559937,214.252655 
	C597.437439,216.119385 597.314880,217.986115 597.192383,219.852844 
	C596.810791,219.867386 596.429138,219.881927 596.047546,219.896484 
	C596.047546,214.787537 596.047546,209.678589 596.047546,203.913239 
	C597.409546,203.913239 599.176208,203.759811 600.907043,203.943512 
	C605.206299,204.399750 607.225403,208.085098 604.474854,211.311768 
	C602.363647,213.788422 603.646729,215.048950 604.993835,217.131104 
M603.253601,207.558838 
	C601.528625,206.858475 599.803711,206.158127 597.557495,205.246140 
	C597.557495,208.119934 597.557495,209.842407 597.557495,211.632584 
	C600.545715,212.102982 603.179688,212.447906 603.253601,207.558838 
z"/>
<path fill="#373737" opacity="1.000000" stroke="none" 
	d="
M457.865570,217.913803 
	C454.308655,220.817566 450.776062,221.080109 447.700317,218.263733 
	C444.522461,215.353882 444.092316,211.064209 446.324768,207.838699 
	C447.762909,205.760773 451.448486,204.083893 454.040405,204.197556 
	C459.558685,204.439560 461.328857,210.959167 457.865570,217.913803 
M457.088867,215.547760 
	C457.201874,213.445084 457.804840,211.221405 457.321869,209.265930 
	C456.424622,205.633209 450.779419,204.162155 449.171997,207.257874 
	C447.876709,209.752487 447.555481,213.925827 448.811859,216.283264 
	C450.480072,219.413437 454.058472,219.049896 457.088867,215.547760 
z"/>
<path fill="#373737" opacity="1.000000" stroke="none" 
	d="
M390.464874,215.014618 
	C385.605835,213.674561 383.688965,216.493408 382.443176,220.361877 
	C381.990692,220.051804 381.538208,219.741745 381.085754,219.431671 
	C383.218414,215.050217 385.351074,210.668762 387.746063,205.748306 
	C392.591339,209.009048 392.300201,214.993469 394.856232,219.475372 
	C394.465393,219.708511 394.074524,219.941650 393.683655,220.174774 
	C392.739319,218.508240 391.794952,216.841705 390.464874,215.014618 
z"/>
<path fill="#3E3E3E" opacity="1.000000" stroke="none" 
	d="
M580.057190,216.897949 
	C580.651245,212.393967 580.973267,208.237122 581.295288,204.080261 
	C581.913086,204.103088 582.530884,204.125900 583.148682,204.148712 
	C582.763611,208.612625 582.807373,213.184174 581.730408,217.474411 
	C581.410339,218.749496 577.935608,219.890427 575.918518,219.870316 
	C574.351685,219.854660 571.630371,218.096298 571.461731,216.838974 
	C570.897034,212.628677 571.247498,208.295654 571.247498,204.009628 
	C571.784790,204.005371 572.322083,204.001099 572.859375,203.996841 
	C572.859375,206.791855 572.833313,209.587173 572.864807,212.381836 
	C572.929626,218.116760 574.067871,218.907028 580.057190,216.897949 
z"/>
<path fill="#3E3E3E" opacity="1.000000" stroke="none" 
	d="
M548.111328,206.699860 
	C548.908997,206.169113 549.481384,205.838974 551.253723,204.816818 
	C546.882874,208.569504 547.046936,212.519073 549.029236,215.633347 
	C550.172974,217.430191 553.563354,217.796982 555.942505,218.807465 
	C556.399719,218.212616 556.856934,217.617767 557.314148,217.022934 
	C556.170044,215.456451 555.025940,213.889984 553.734070,212.121155 
	C555.281372,212.043564 556.840820,211.965363 559.624329,211.825775 
	C558.777344,214.849457 558.790405,218.686203 557.262634,219.452942 
	C554.029297,221.075638 549.816956,220.849289 547.373596,217.347763 
	C545.023376,213.979797 544.724487,210.234314 548.111328,206.699860 
z"/>
<path fill="#3E3E3E" opacity="1.000000" stroke="none" 
	d="
M530.940552,218.163147 
	C532.557190,218.345749 533.733948,218.529572 534.910706,218.713379 
	C534.875061,219.031921 534.839417,219.350479 534.803711,219.669022 
	C532.041504,219.669022 529.279297,219.669022 526.250122,219.669022 
	C526.250122,214.605301 526.250122,209.551712 526.250122,204.229980 
	C529.187195,204.229980 531.992493,204.229980 534.797729,204.229980 
	C534.845459,204.599976 534.893188,204.969955 534.940918,205.339951 
	C532.854492,205.606979 530.768066,205.874008 528.342163,206.184494 
	C528.271729,207.533340 528.198547,208.936783 528.112244,210.590286 
	C530.349731,210.818085 532.355225,211.022263 534.360718,211.226440 
	C534.392517,211.611099 534.424377,211.995758 534.456177,212.380417 
	C532.513184,212.622726 530.570190,212.865036 526.951538,213.316330 
	C528.425110,215.329239 529.462830,216.746811 530.940552,218.163147 
z"/>
<path fill="#373737" opacity="1.000000" stroke="none" 
	d="
M630.403687,214.848755 
	C628.322815,219.391510 625.043457,221.149506 621.091370,219.840912 
	C617.372131,218.609421 615.454346,214.259415 616.548828,209.497070 
	C617.290344,206.270782 618.698853,203.982132 623.656250,205.470642 
	C618.449829,206.245453 617.956909,209.581757 618.525330,212.738647 
	C618.868958,214.646896 620.474548,217.016556 622.161438,217.823502 
	C624.370911,218.880447 627.124817,218.390411 628.451843,214.892853 
	C629.315063,214.641006 629.859375,214.744873 630.403687,214.848755 
z"/>
<path fill="#454545" opacity="1.000000" stroke="none" 
	d="
M432.524231,203.886841 
	C433.748718,203.982483 434.549927,204.078156 435.351166,204.173828 
	C435.415222,204.448700 435.479248,204.723572 435.543304,204.998428 
	C434.043457,205.475006 432.543610,205.951584 430.428955,206.623505 
	C430.428955,210.931778 430.428955,215.435211 430.428955,219.938644 
	C430.009857,219.954163 429.590729,219.969696 429.171631,219.985229 
	C429.171631,215.594635 429.171631,211.204025 429.171631,206.699677 
	C426.993683,206.120651 425.387512,205.693649 423.781342,205.266647 
	C423.787689,204.806717 423.794006,204.346802 423.800323,203.886871 
	C426.567230,203.886871 429.334106,203.886871 432.524231,203.886841 
z"/>
<path fill="#303030" opacity="1.000000" stroke="none" 
	d="
M475.307251,203.949661 
	C477.047211,204.178192 478.385712,204.412552 480.148468,204.721222 
	C479.465698,205.554001 479.335083,205.881287 479.131500,205.935730 
	C477.081421,206.483871 475.019409,206.987244 472.960754,207.503220 
	C474.506439,208.923889 476.249908,210.187485 477.539581,211.811478 
	C478.718292,213.295746 480.012482,215.153671 480.058777,216.879028 
	C480.082520,217.766068 477.495422,218.723068 475.619171,218.817566 
	C476.610687,217.734741 477.602234,216.651901 478.593781,215.569077 
	C477.356842,214.579193 476.034027,213.677444 474.904510,212.577316 
	C473.468414,211.178619 471.248413,209.686066 471.136108,208.108078 
	C471.044464,206.819824 473.551086,205.346680 475.307251,203.949661 
z"/>
<path fill="#3E3E3E" opacity="1.000000" stroke="none" 
	d="
M511.637024,213.777267 
	C510.569214,213.189621 509.630157,213.042389 509.079803,212.500443 
	C507.650665,211.093109 506.039856,209.672256 505.244232,207.919647 
	C504.938416,207.245895 506.449310,204.914581 507.475250,204.645416 
	C509.507599,204.112228 511.778351,204.487900 513.950562,204.487900 
	C513.942444,204.900375 513.934387,205.312851 513.926270,205.725327 
	C513.499084,205.842072 513.073914,205.967117 512.644287,206.074112 
	C510.859009,206.518738 509.072418,206.957932 507.286285,207.399109 
	C508.678314,208.758377 510.097412,210.091278 511.454315,211.484756 
	C512.656250,212.719147 514.153564,213.864517 514.795288,215.360291 
	C515.106323,216.085358 513.756287,217.523056 512.680725,219.528473 
	C512.321960,216.858521 512.132446,215.448181 511.637024,213.777267 
z"/>
<path fill="#303030" opacity="1.000000" stroke="none" 
	d="
M642.895386,205.364685 
	C645.595642,204.737503 648.052856,204.385330 650.510071,204.033157 
	C650.572388,204.559036 650.634705,205.084915 650.696960,205.610794 
	C650.303040,205.753021 649.915100,205.915863 649.514038,206.033997 
	C647.661987,206.579544 645.806152,207.112625 643.951721,207.650177 
	C645.406006,208.967560 647.021362,210.150040 648.269104,211.640305 
	C649.513062,213.125870 651.059326,214.881134 651.158630,216.594315 
	C651.212952,217.531952 648.548767,218.627167 646.471313,218.701996 
	C647.511536,217.760651 648.551758,216.819321 649.591919,215.877975 
	C648.602844,214.894226 647.773926,213.605179 646.593567,212.986191 
	C643.529419,211.379288 640.242126,210.104416 642.895386,205.364685 
z"/>
<path fill="#303030" opacity="1.000000" stroke="none" 
	d="
M327.056519,212.193848 
	C324.152954,210.700409 322.681000,208.525345 324.493652,206.002487 
	C326.656555,202.992111 329.714508,203.322479 332.895386,205.083115 
	C332.472626,205.572006 332.334564,205.892365 332.125946,205.947998 
	C330.077240,206.494217 328.016815,206.996399 325.959686,207.511078 
	C327.513336,208.938431 329.269135,210.206055 330.560852,211.840424 
	C331.731201,213.321243 332.984222,215.184738 333.034760,216.913605 
	C333.060028,217.777817 330.482025,218.718124 328.543762,218.757690 
	C329.554565,217.841827 330.565399,216.925964 331.576202,216.010086 
	C330.188293,214.774918 328.800354,213.539749 327.056519,212.193848 
z"/>
<path fill="#3E3E3E" opacity="1.000000" stroke="none" 
	d="
M302.278442,218.854279 
	C298.664886,213.957260 300.539215,208.991119 300.332153,204.149750 
	C300.969818,204.111710 301.607452,204.073685 302.245117,204.035660 
	C302.245117,206.121933 302.247498,208.208206 302.244720,210.294479 
	C302.234009,218.275192 302.972504,218.902771 310.647919,217.429031 
	C308.332367,220.627319 307.481598,220.803604 302.278442,218.854279 
z"/>
<path fill="#3E3E3E" opacity="1.000000" stroke="none" 
	d="
M409.617432,212.349609 
	C406.149628,211.200546 404.848969,209.160858 405.612183,206.005173 
	C405.149933,208.583466 407.861603,212.294006 410.524200,212.849777 
	C411.846954,213.125870 414.154083,214.426941 414.068848,214.748810 
	C413.614532,216.464645 412.892456,218.927032 411.607941,219.418289 
	C409.566528,220.199020 407.007690,219.626709 404.667694,219.055191 
	C413.734772,217.187531 413.734772,217.187531 409.617432,212.349609 
z"/>
<path fill="#3E3E3E" opacity="1.000000" stroke="none" 
	d="
M312.191772,210.863403 
	C312.067810,212.573303 311.945160,213.892715 311.822510,215.212128 
	C311.454987,215.192261 311.087494,215.172394 310.719971,215.152527 
	C310.719971,211.813858 310.719971,208.475189 310.719971,205.136536 
	C311.070068,205.095337 311.420197,205.054153 311.770294,205.012970 
	C311.911224,206.832962 312.052155,208.652939 312.191772,210.863403 
z"/>
<path fill="#EFEFEF" opacity="1.000000" stroke="none" 
	d="
M630.605225,214.515411 
	C629.859375,214.744873 629.315063,214.641006 628.489075,214.528854 
	C627.666077,211.007828 627.124756,207.495102 626.439514,203.048508 
	C631.078186,206.462997 632.057495,209.948685 630.605225,214.515411 
z"/>
<path fill="#1E1E1D" opacity="1.000000" stroke="none" 
	d="
M282.105347,203.973694 
	C284.537170,203.974319 286.520966,203.974319 289.570038,203.974319 
	C279.619232,206.895203 286.309967,214.603363 283.153320,219.642166 
	C283.153320,215.060318 283.153320,210.792221 283.153320,206.409988 
	C281.168121,206.091583 279.626404,205.844299 278.084656,205.597031 
	C278.043854,205.205841 278.003052,204.814651 277.962250,204.423477 
	C279.193970,204.273331 280.425659,204.123199 282.105347,203.973694 
z"/>
<path fill="#FBFBFA" opacity="1.000000" stroke="none" 
	d="
M354.145752,164.051559 
	C352.734833,163.293671 351.208191,162.667953 351.007812,161.752060 
	C350.592682,159.854889 350.882568,157.803452 350.882568,155.441437 
	C357.203766,155.441437 363.372803,155.441437 369.775208,155.441437 
	C369.775208,158.162827 369.775208,160.763123 369.775208,164.052353 
	C364.785858,164.052353 359.708191,164.052353 354.145752,164.051559 
z"/>
<path fill="#F3F3F2" opacity="1.000000" stroke="none" 
	d="
M455.250488,162.734879 
	C455.201172,160.130402 455.201172,157.984680 455.201172,155.439651 
	C461.553986,155.439651 467.736908,155.439651 474.269836,155.439651 
	C474.269836,158.081787 474.269836,160.804153 474.269836,164.435318 
	C467.862091,164.015900 461.580963,163.604767 455.250488,162.734879 
z"/>
<path fill="#F3F3F2" opacity="1.000000" stroke="none" 
	d="
M540.288208,155.242859 
	C545.890503,155.239182 551.017578,155.239182 556.515381,155.239182 
	C556.515381,158.076843 556.515381,160.646423 556.515381,163.609848 
	C550.611206,163.609848 544.417969,163.609848 536.849304,163.609848 
	C537.915100,160.602432 538.864075,157.924500 540.288208,155.242859 
z"/>
<path fill="#EFEFEF" opacity="1.000000" stroke="none" 
	d="
M603.290283,207.989975 
	C603.179688,212.447906 600.545715,212.102982 597.557495,211.632584 
	C597.557495,209.842407 597.557495,208.119934 597.557495,205.246140 
	C599.803711,206.158127 601.528625,206.858475 603.290283,207.989975 
z"/>
<path fill="#F3F3F2" opacity="1.000000" stroke="none" 
	d="
M456.917633,215.915466 
	C454.058472,219.049896 450.480072,219.413437 448.811859,216.283264 
	C447.555481,213.925827 447.876709,209.752487 449.171997,207.257874 
	C450.779419,204.162155 456.424622,205.633209 457.321869,209.265930 
	C457.804840,211.221405 457.201874,213.445084 456.917633,215.915466 
z"/>
</svg>