<svg version="1.1" id="Layer_1" xmlns="http://www.w3.org/2000/svg" xmlns:xlink="http://www.w3.org/1999/xlink" x="0px" y="0px"
	 width="100%" viewBox="0 0 612 612" enable-background="new 0 0 612 612" xml:space="preserve">
<path fill="#FEFEFE" opacity="1.000000" stroke="none" 
	d="
M345.000000,613.000000 
	C230.000015,613.000000 115.500038,613.000000 1.000046,613.000000 
	C1.000031,409.000061 1.000031,205.000107 1.000015,1.000128 
	C204.999893,1.000085 408.999786,1.000085 612.999756,1.000043 
	C612.999878,204.999878 612.999878,408.999756 612.999939,612.999817 
	C523.833313,613.000000 434.666656,613.000000 345.000000,613.000000 
M242.466965,349.005341 
	C242.466965,349.005341 242.498383,348.954681 242.503784,348.113434 
	C241.510574,347.322296 240.517349,346.531128 238.982605,345.308624 
	C238.982605,385.643311 238.982605,424.865326 238.982605,464.300201 
	C248.480972,464.300201 257.685150,464.300201 267.322632,464.300201 
	C267.322632,462.310699 267.323212,460.670319 267.322571,459.029968 
	C267.313690,435.559723 266.300110,412.030609 267.670135,388.641144 
	C268.499786,374.477386 264.618591,364.420441 252.906158,356.920563 
	C249.242172,354.574341 245.964890,351.624268 242.466965,349.005341 
M488.181000,287.226257 
	C488.131439,286.491089 488.081879,285.755890 488.231995,284.271515 
	C488.314270,280.975952 486.753174,282.130249 485.267914,283.191986 
	C477.421295,288.801239 469.502197,294.315399 461.817688,300.138977 
	C460.531769,301.113495 459.637421,303.444489 459.634705,305.150391 
	C459.552979,356.229462 459.606415,407.308716 459.638428,458.387970 
	C459.639618,460.316467 459.638611,462.244965 459.638611,464.617432 
	C468.796112,464.617432 477.251556,464.716858 485.696014,464.457367 
	C486.504700,464.432556 487.244659,462.170563 488.205048,460.036926 
	C488.217743,404.029510 488.231537,348.022095 488.234528,292.014679 
	C488.234589,291.022919 488.105011,290.031158 488.174988,288.489349 
	C488.118744,288.308777 488.062531,288.128235 488.181000,287.226257 
M77.087257,308.500000 
	C77.087257,379.257263 77.087257,450.014496 77.087257,520.730835 
	C230.655670,520.730835 383.660675,520.730835 536.571045,520.730835 
	C536.571045,511.246307 536.571045,502.161774 536.571045,492.713013 
	C393.018188,492.713013 249.777298,492.713013 105.991486,492.713013 
	C105.991486,359.315155 105.991486,226.288895 105.991486,93.226280 
	C96.069069,93.226280 86.697227,93.226280 77.087265,93.226280 
	C77.087265,164.905899 77.087265,236.202942 77.087257,308.500000 
M466.321198,256.810883 
	C476.854858,249.290894 487.388519,241.770889 498.044220,234.163742 
	C501.008423,238.034271 503.645477,241.477646 507.056213,245.931259 
	C514.936523,227.996307 522.222229,211.414597 530.024109,193.658142 
	C510.523102,195.799637 492.499420,197.778900 473.438232,199.872101 
	C476.893524,204.904739 479.566711,208.798264 482.411652,212.941910 
	C426.049530,253.162125 369.998077,293.160645 313.953430,333.154327 
	C285.181885,307.563446 256.869293,282.380798 228.467575,257.118866 
	C196.180435,288.441956 164.279251,319.390625 132.116638,350.592926 
	C138.485001,356.654938 144.780579,362.647675 151.276428,368.831055 
	C177.541306,343.310394 203.279175,318.301788 229.124741,293.188568 
	C257.051392,318.014099 284.519714,342.432220 312.043121,366.899292 
	C363.534882,330.129425 414.618622,293.650940 466.321198,256.810883 
M400.719086,166.908539 
	C400.481293,165.938751 400.251129,164.967026 400.004608,163.999466 
	C390.179718,125.440147 353.466461,98.428055 311.016113,104.393448 
	C266.042053,110.713493 238.983780,151.896133 242.649918,191.560822 
	C247.968079,249.099014 314.427032,282.846985 363.709656,252.262909 
	C393.083679,234.033813 406.593170,203.319626 400.719086,166.908539 
M413.725891,463.997498 
	C413.828094,463.011749 414.019012,462.026093 414.019714,461.040283 
	C414.048340,419.579712 414.061157,378.119141 414.062164,336.658569 
	C414.062195,336.078796 413.888092,335.498993 413.697601,334.309662 
	C405.101501,340.429932 397.103180,346.342377 388.853088,351.879730 
	C385.993195,353.799286 385.077301,355.876709 385.088409,359.221893 
	C385.200195,392.856567 385.147461,426.491821 385.157349,460.126892 
	C385.157715,461.415375 385.323639,462.703827 385.450012,464.537750 
	C394.776611,464.537750 403.880768,464.537750 413.725891,463.997498 
M178.510193,464.667633 
	C182.174484,464.667664 185.863876,464.398895 189.496490,464.738190 
	C193.695053,465.130341 194.843994,463.575745 194.818924,459.451416 
	C194.649811,431.637299 194.724106,403.821777 194.697449,376.006683 
	C194.696259,374.769379 194.480453,373.532227 194.268494,371.268219 
	C185.297714,379.869263 176.924377,387.679443 168.868073,395.803986 
	C167.238068,397.447815 165.980896,400.269897 165.952621,402.566010 
	C165.716751,421.717194 165.800354,440.872375 165.819519,460.026337 
	C165.820953,461.451813 166.070343,462.877014 166.238800,464.667267 
	C170.243271,464.667267 173.882263,464.667267 178.510193,464.667633 
M311.954712,423.502136 
	C311.954712,437.089264 311.954712,450.676361 311.954712,464.360626 
	C321.877655,464.360626 331.114227,464.360626 340.564758,464.360626 
	C340.564758,438.539520 340.564758,413.031708 340.564758,386.491394 
	C334.795807,390.607971 330.066711,394.946320 324.549561,397.713348 
	C313.945709,403.031555 309.715057,410.966705 311.954712,423.502136 
z"/>
<path fill="#0C273A" opacity="1.000000" stroke="none" 
	d="
M77.087265,308.000000 
	C77.087265,236.202942 77.087265,164.905899 77.087265,93.226280 
	C86.697227,93.226280 96.069069,93.226280 105.991486,93.226280 
	C105.991486,226.288895 105.991486,359.315155 105.991486,492.713013 
	C249.777298,492.713013 393.018188,492.713013 536.571045,492.713013 
	C536.571045,502.161774 536.571045,511.246307 536.571045,520.730835 
	C383.660675,520.730835 230.655670,520.730835 77.087257,520.730835 
	C77.087257,450.014496 77.087257,379.257263 77.087265,308.000000 
z"/>
<path fill="#0E293B" opacity="1.000000" stroke="none" 
	d="
M466.011780,256.991669 
	C414.618622,293.650940 363.534882,330.129425 312.043121,366.899292 
	C284.519714,342.432220 257.051392,318.014099 229.124741,293.188568 
	C203.279175,318.301788 177.541306,343.310394 151.276428,368.831055 
	C144.780579,362.647675 138.485001,356.654938 132.116638,350.592926 
	C164.279251,319.390625 196.180435,288.441956 228.467575,257.118866 
	C256.869293,282.380798 285.181885,307.563446 313.953430,333.154327 
	C369.998077,293.160645 426.049530,253.162125 482.411652,212.941910 
	C479.566711,208.798264 476.893524,204.904739 473.438232,199.872101 
	C492.499420,197.778900 510.523102,195.799637 530.024109,193.658142 
	C522.222229,211.414597 514.936523,227.996307 507.056213,245.931259 
	C503.645477,241.477646 501.008423,238.034271 498.044220,234.163742 
	C487.388519,241.770889 476.854858,249.290894 466.011780,256.991669 
z"/>
<path fill="#397CBD" opacity="1.000000" stroke="none" 
	d="
M400.801239,167.328064 
	C406.593170,203.319626 393.083679,234.033813 363.709656,252.262909 
	C314.427032,282.846985 247.968079,249.099014 242.649918,191.560822 
	C238.983780,151.896133 266.042053,110.713493 311.016113,104.393448 
	C353.466461,98.428055 390.179718,125.440147 400.004608,163.999466 
	C400.251129,164.967026 400.481293,165.938751 400.801239,167.328064 
M267.767731,211.657623 
	C280.981049,236.844833 308.714508,249.783340 336.280304,243.620819 
	C365.670959,237.050339 386.784882,207.756454 383.723694,177.796997 
	C380.565643,146.889679 354.339020,122.539719 323.751617,122.116257 
	C277.316437,121.473389 247.206223,168.978943 267.767731,211.657623 
z"/>
<path fill="#367BBD" opacity="1.000000" stroke="none" 
	d="
M488.016541,460.947144 
	C487.244659,462.170563 486.504700,464.432556 485.696014,464.457367 
	C477.251556,464.716858 468.796112,464.617432 459.638611,464.617432 
	C459.638611,462.244965 459.639618,460.316467 459.638428,458.387970 
	C459.606415,407.308716 459.552979,356.229462 459.634705,305.150391 
	C459.637421,303.444489 460.531769,301.113495 461.817688,300.138977 
	C469.502197,294.315399 477.421295,288.801239 485.267914,283.191986 
	C486.753174,282.130249 488.314270,280.975952 487.872437,284.813995 
	C487.677307,286.220215 487.841797,287.083923 488.006287,287.947662 
	C488.062531,288.128235 488.118744,288.308777 487.794556,289.040100 
	C487.276855,290.566498 487.019653,291.542084 487.019318,292.517731 
	C487.000916,347.275299 486.996521,402.032898 487.047211,456.790436 
	C487.048492,458.176300 487.679321,459.561584 488.016541,460.947144 
z"/>
<path fill="#397CBD" opacity="1.000000" stroke="none" 
	d="
M413.355408,464.267639 
	C403.880768,464.537750 394.776611,464.537750 385.450012,464.537750 
	C385.323639,462.703827 385.157715,461.415375 385.157349,460.126892 
	C385.147461,426.491821 385.200195,392.856567 385.088409,359.221893 
	C385.077301,355.876709 385.993195,353.799286 388.853088,351.879730 
	C397.103180,346.342377 405.101501,340.429932 413.697601,334.309662 
	C413.888092,335.498993 414.062195,336.078796 414.062164,336.658569 
	C414.061157,378.119141 414.048340,419.579712 414.019714,461.040283 
	C414.019012,462.026093 413.828094,463.011749 413.355408,464.267639 
M412.004150,339.416779 
	C412.004150,380.235321 412.004150,421.053864 412.004150,463.285004 
	C412.712067,461.579529 412.941925,461.284149 412.942139,460.988647 
	C412.969879,420.707123 412.982574,380.425629 412.977051,340.144104 
	C412.976959,339.517944 412.742279,338.891785 412.617065,338.265625 
	C412.426605,338.397552 412.236145,338.529480 412.004150,339.416779 
z"/>
<path fill="#377BBD" opacity="1.000000" stroke="none" 
	d="
M242.510590,348.950592 
	C245.964890,351.624268 249.242172,354.574341 252.906158,356.920563 
	C264.618591,364.420441 268.499786,374.477386 267.670135,388.641144 
	C266.300110,412.030609 267.313690,435.559723 267.322571,459.029968 
	C267.323212,460.670319 267.322632,462.310699 267.322632,464.300201 
	C257.685150,464.300201 248.480972,464.300201 238.982605,464.300201 
	C238.982605,424.865326 238.982605,385.643311 238.982605,345.308624 
	C240.517349,346.531128 241.510574,347.322296 242.125671,348.473358 
	C241.167709,350.173523 240.085388,351.512329 240.081573,352.854218 
	C239.987244,385.980011 240.004517,419.106140 240.017044,452.232208 
	C240.017502,453.459869 240.170029,454.687439 240.251694,455.915070 
	C240.501328,455.908447 240.750977,455.901855 241.000610,455.895264 
	C241.000610,454.104004 241.000626,452.312714 241.000626,450.521454 
	C241.000626,419.226471 240.965393,387.931366 241.065979,356.636719 
	C241.074219,354.073151 242.007263,351.512573 242.510590,348.950592 
z"/>
<path fill="#3B7DBE" opacity="1.000000" stroke="none" 
	d="
M178.015717,464.667450 
	C173.882263,464.667267 170.243271,464.667267 166.238800,464.667267 
	C166.070343,462.877014 165.820953,461.451813 165.819519,460.026337 
	C165.800354,440.872375 165.716751,421.717194 165.952621,402.566010 
	C165.980896,400.269897 167.238068,397.447815 168.868073,395.803986 
	C176.924377,387.679443 185.297714,379.869263 194.268494,371.268219 
	C194.480453,373.532227 194.696259,374.769379 194.697449,376.006683 
	C194.724106,403.821777 194.649811,431.637299 194.818924,459.451416 
	C194.843994,463.575745 193.695053,465.130341 189.496490,464.738190 
	C185.863876,464.398895 182.174484,464.667664 178.015717,464.667450 
z"/>
<path fill="#3A7DBE" opacity="1.000000" stroke="none" 
	d="
M311.954712,423.002777 
	C309.715057,410.966705 313.945709,403.031555 324.549561,397.713348 
	C330.066711,394.946320 334.795807,390.607971 340.564758,386.491394 
	C340.564758,413.031708 340.564758,438.539520 340.564758,464.360626 
	C331.114227,464.360626 321.877655,464.360626 311.954712,464.360626 
	C311.954712,450.676361 311.954712,437.089264 311.954712,423.002777 
z"/>
<path fill="#3C74A3" opacity="1.000000" stroke="none" 
	d="
M488.110779,460.492035 
	C487.679321,459.561584 487.048492,458.176300 487.047211,456.790436 
	C486.996521,402.032898 487.000916,347.275299 487.019318,292.517731 
	C487.019653,291.542084 487.276855,290.566498 487.725037,289.315125 
	C488.105011,290.031158 488.234589,291.022919 488.234528,292.014679 
	C488.231537,348.022095 488.217743,404.029510 488.110779,460.492035 
z"/>
<path fill="#3C74A3" opacity="1.000000" stroke="none" 
	d="
M488.093628,287.586975 
	C487.841797,287.083923 487.677307,286.220215 487.772583,285.188599 
	C488.081879,285.755890 488.131439,286.491089 488.093628,287.586975 
z"/>
<path fill="#FAFCFD" opacity="1.000000" stroke="none" 
	d="
M267.592712,211.326538 
	C247.206223,168.978943 277.316437,121.473389 323.751617,122.116257 
	C354.339020,122.539719 380.565643,146.889679 383.723694,177.796997 
	C386.784882,207.756454 365.670959,237.050339 336.280304,243.620819 
	C308.714508,249.783340 280.981049,236.844833 267.592712,211.326538 
M336.772705,167.893219 
	C340.522736,166.511673 344.231842,165.001862 348.035797,163.789429 
	C351.045898,162.830032 351.341766,161.336243 350.173157,158.563568 
	C347.393921,151.969330 343.274048,146.343430 336.355408,144.418533 
	C330.800476,142.873062 328.084442,140.521591 328.914551,134.710129 
	C328.943512,134.507446 328.502655,134.237640 328.420105,134.148895 
	C324.190338,134.148895 320.109619,134.148895 315.419891,134.148895 
	C317.155487,140.918732 313.577301,143.378418 308.004791,144.594360 
	C306.162872,144.996262 304.419464,146.360687 302.890106,147.603775 
	C289.209747,158.723511 291.670410,179.446060 307.703522,186.744675 
	C314.197418,189.700821 321.190094,191.557068 327.704559,194.474792 
	C329.532654,195.293549 331.579193,198.148087 331.508087,199.990967 
	C331.433441,201.926193 329.330750,204.622452 327.429352,205.497086 
	C320.604462,208.636505 313.514923,205.145020 311.041168,197.991943 
	C310.621552,196.778702 310.141693,195.586273 309.630402,194.226517 
	C303.281311,195.749908 297.228363,197.202271 291.015625,198.692947 
	C293.512787,210.804001 299.635193,219.012314 311.564056,221.702927 
	C314.702759,222.410858 315.569458,223.653259 315.475952,226.679230 
	C315.261444,233.622162 314.304413,233.679321 322.483429,233.683792 
	C324.590424,233.684952 326.697418,233.683960 329.214111,233.683960 
	C329.214111,231.347687 329.407288,229.676697 329.175903,228.066711 
	C328.606598,224.105362 329.840515,222.143311 334.134399,221.381714 
	C340.179169,220.309540 345.288818,217.151871 348.958191,212.000671 
	C358.455383,198.668060 353.466309,182.809296 337.344940,175.728729 
	C331.417969,173.125580 325.122284,171.338135 319.288666,168.561218 
	C317.590057,167.752640 315.756775,164.598419 316.068420,162.902191 
	C316.410034,161.043137 318.902191,158.832916 320.913818,158.177719 
	C325.529724,156.674301 329.544983,159.404022 332.456055,164.668045 
	C333.232208,166.071564 334.863098,167.002426 336.772705,167.893219 
z"/>
<path fill="#297FCC" opacity="1.000000" stroke="none" 
	d="
M412.024933,339.039093 
	C412.236145,338.529480 412.426605,338.397552 412.617065,338.265625 
	C412.742279,338.891785 412.976959,339.517944 412.977051,340.144104 
	C412.982574,380.425629 412.969879,420.707123 412.942139,460.988647 
	C412.941925,461.284149 412.712067,461.579529 412.004150,463.285004 
	C412.004150,421.053864 412.004150,380.235321 412.024933,339.039093 
z"/>
<path fill="#2B7DC9" opacity="1.000000" stroke="none" 
	d="
M242.488770,348.977966 
	C242.007263,351.512573 241.074219,354.073151 241.065979,356.636719 
	C240.965393,387.931366 241.000626,419.226471 241.000626,450.521454 
	C241.000626,452.312714 241.000610,454.104004 241.000610,455.895264 
	C240.750977,455.901855 240.501328,455.908447 240.251694,455.915070 
	C240.170029,454.687439 240.017502,453.459869 240.017044,452.232208 
	C240.004517,419.106140 239.987244,385.980011 240.081573,352.854218 
	C240.085388,351.512329 241.167709,350.173523 242.122955,348.893982 
	C242.498383,348.954681 242.466965,349.005341 242.488770,348.977966 
z"/>
<path fill="#397CBD" opacity="1.000000" stroke="none" 
	d="
M336.437134,168.021759 
	C334.863098,167.002426 333.232208,166.071564 332.456055,164.668045 
	C329.544983,159.404022 325.529724,156.674301 320.913818,158.177719 
	C318.902191,158.832916 316.410034,161.043137 316.068420,162.902191 
	C315.756775,164.598419 317.590057,167.752640 319.288666,168.561218 
	C325.122284,171.338135 331.417969,173.125580 337.344940,175.728729 
	C353.466309,182.809296 358.455383,198.668060 348.958191,212.000671 
	C345.288818,217.151871 340.179169,220.309540 334.134399,221.381714 
	C329.840515,222.143311 328.606598,224.105362 329.175903,228.066711 
	C329.407288,229.676697 329.214111,231.347687 329.214111,233.683960 
	C326.697418,233.683960 324.590424,233.684952 322.483429,233.683792 
	C314.304413,233.679321 315.261444,233.622162 315.475952,226.679230 
	C315.569458,223.653259 314.702759,222.410858 311.564056,221.702927 
	C299.635193,219.012314 293.512787,210.804001 291.015625,198.692947 
	C297.228363,197.202271 303.281311,195.749908 309.630402,194.226517 
	C310.141693,195.586273 310.621552,196.778702 311.041168,197.991943 
	C313.514923,205.145020 320.604462,208.636505 327.429352,205.497086 
	C329.330750,204.622452 331.433441,201.926193 331.508087,199.990967 
	C331.579193,198.148087 329.532654,195.293549 327.704559,194.474792 
	C321.190094,191.557068 314.197418,189.700821 307.703522,186.744675 
	C291.670410,179.446060 289.209747,158.723511 302.890106,147.603775 
	C304.419464,146.360687 306.162872,144.996262 308.004791,144.594360 
	C313.577301,143.378418 317.155487,140.918732 315.419891,134.148895 
	C320.109619,134.148895 324.190338,134.148895 328.420105,134.148895 
	C328.502655,134.237640 328.943512,134.507446 328.914551,134.710129 
	C328.084442,140.521591 330.800476,142.873062 336.355408,144.418533 
	C343.274048,146.343430 347.393921,151.969330 350.173157,158.563568 
	C351.341766,161.336243 351.045898,162.830032 348.035797,163.789429 
	C344.231842,165.001862 340.522736,166.511673 336.437134,168.021759 
z"/>
</svg>